<?xml version="1.0" encoding="utf-8"?>
<!-- Generator: Adobe Illustrator 17.0.0, SVG Export Plug-In . SVG Version: 6.00 Build 0)  -->
<!DOCTYPE svg PUBLIC "-//W3C//DTD SVG 1.1//EN" "http://www.w3.org/Graphics/SVG/1.1/DTD/svg11.dtd">
<svg version="1.1" id="Capa_1" xmlns="http://www.w3.org/2000/svg" xmlns:xlink="http://www.w3.org/1999/xlink" x="0px" y="0px"
	 width="360px" height="517px" viewBox="0 0 360 517" enable-background="new 0 0 360 517" xml:space="preserve">
<path fill="#7B93FD" d="M84.887,157.935c-2.272,5.202-6.386,8.984-10.09,13.081c-8.757-2.625-10.977-9.417-10.45-18.03
	c-2.162,1.645-2.199,3.417-2.789,4.948c-0.581,1.507-2.649,3.174-3.204,2.067c-0.971-1.936-5.693-0.341-3.853-4.301
	c0.047-0.1,0.079-0.207,0.118-0.311c-0.126,0.075-0.253,0.15-0.208,0.124c-1.846,2.343-4.749,3.425-5.631,6.535
	c-0.409,1.441-1.741,3.93-3.946,2.185c-1.789-1.416-0.143-2.885,1.02-4.153c3.225-3.512,6.163-7.167,5.011-11.093
	c-6.282-4.471-8.161,3.939-14.232,3.269c4.428-3.311,5.447-7.786,8.089-11.201c0.538-0.696,1.088-1.589,0.275-2.455
	c-0.878-0.936-1.734-0.218-2.38,0.321c-2.118,1.769-4.778,1.94-7.265,2.361c-1.957,0.331-5.122,1.285-3.767-3.021
	c0.461-1.463-0.837-1.316-1.653-1.308c-1.842,0.02-3.436,0.748-5.093,1.585c-2.305,1.164-4.376,3.295-8.097,2.538
	c2.814-2.706,6.462-4.049,7.759-7.282c1.319-3.285,3.634-5.453,6.229-7.557c2.159-1.752,3.159-4.747,6.313-5.509
	c1.24-0.3-0.144-1.806,0.181-2.269c1.692-2.409-3.007-4.243-0.603-6.354c2.225-1.955,1.316-3.964,0.785-6.087
	c0.299-0.009,0.565-0.108,0.799-0.294c5.405-3.266,11.615-5.63,13.885-12.405c0.527-0.157,1.053-0.316,1.58-0.473
	c2.511-0.683,4.715-2.084,6.454-3.856c1.505-1.533,5.026-3.213,1.011-6.029c-1.188-0.833,0.064-1.412,0.831-1.812
	c1.173-0.61,2.701-0.398,3.634-1.563c4.161-1.723,7.229-4.95,10.2-8.07c6.462-6.785,13.297-13.15,20.233-19.429
	c2.405-2.178,5.318-3.457,8.12-4.905c1.445-0.746,3.24-0.944,4.625,0.487c0.824,0.851,1.916,1.387,2.837,0.727
	c4.434-3.179,8.571-0.405,11.412,1.82c9.338,7.315,17.006,15.93,16.375,29.128c-0.44,9.217,2.977,17.96,3.854,27.037
	c0.144,1.49,1.312,2.692,2.778,3.402c3.971,1.925,6.379,5.136,7.909,9.222c1.96,5.233,6.134,8.915,10.627,11.497
	c5.584,3.209,8.513,8.323,11.491,13.322c2.576,4.325,6.734,8.605,4.959,14.379c-1.564,5.088-1.425,9.879,0,14.983
	c0.917,3.281,2.5,2.312,3.709,1.068c8.475-8.71,19.394-14.496,27.689-23.426c6.6-7.106,13.393-14.036,20.229-20.917
	c2.327-2.341,2.488-5.777,4.998-8.099c6.401-5.923,12.169-12.553,20.119-16.609c2.856-1.457,5.298-3.604,8.677-4.184
	c1.581-0.272,2.412-1.998,2.302-3.965c-0.101-1.816-0.819-2.391-2.539-3.046c-6.801-2.591-10.045-8.683-12.883-14.715
	c-3.009-6.393-5.941-12.978-7.594-19.797c-1.184-4.885-3.494-8.847-5.823-13.036c-1.134-2.039-0.609-4.632,0.616-6.491
	c2.355-3.573,1.761-9.338,6.546-10.858c4.719-1.5,9.11-4.36,14.364-4.14c0.895,0.037,2.212,0.467,2.71-0.96c1.822,0,3.644,0,5.466,0
	c2.138,1.506,4.076,3.607,6.452,4.409c7.408,2.499,10.782,6.645,10.847,14.449c0.022,2.568,0.351,4.974,1.225,7.493
	c1.166,3.355,1.329,7.078-0.201,10.516c-3.418,7.678,1.378,22.405,9.321,25.489c6.887,2.674,13.029,6.905,20.177,8.93
	c2.047,0.58,3.276,2.15,4.267,4.25c3.358,7.115,7.3,13.958,10.604,21.097c3.193,6.901,8.525,12.771,8.815,21.174
	c0.103,2.979,0.565,6.707,2.273,9.717c0,3.339,0,6.68,0,10.019c-6.008,4.462-11.572,9.635-18.443,12.752
	c-3.322,1.507-4.497,3.29-4.421,6.998c0.574,27.91-0.458,55.804-1.117,83.702c-0.069,2.917-0.096,5.843-4.165,2.793
	c-1.647-1.234-2.903-0.56-3.663,1.032c-2.114,4.422-3.901,9.031-5.545,13.6c-2.201,6.115-5.598,11.629-7.812,17.69
	c-2.359,6.46-6.812,12.206-6.025,19.724c0.561,5.357,0.909,10.942,0.565,16.135c-0.473,7.117-0.125,13.879,1.395,20.735
	c1.821,8.214,3.34,16.569,2.668,24.949c-1.196,14.916-1.998,29.815-1.836,44.782c0.024,2.285-0.522,4.533,0.063,6.896
	c0.8,3.23-1.168,6.83,1.354,10.079c0.241,0.31-1.358,4.068-0.054,5.804c4.352,5.793,4.852,12.306,4.26,19.117
	c-0.405,4.666-4.336,7.563-8.807,6.197c-1.525-0.466-3.425-1.117-4.32-0.342c-4.272,3.697-9.576,6.819-11.307,12.486
	c-1.19,3.897-3.133,6.488-6.57,8.249c-9.108,0-18.217,0-27.326,0c-2.806-5.087,1.479-7.242,4.392-9.424
	c1.767-1.324,3.207-2.398,3.882-4.555c0.923-2.949,4.671-3.467,5.554-7.033c0.884-3.566-0.086-3.735-2.916-3.607
	c-5.86,0.262-11.583-0.407-17.055-2.762c-2.349-1.011-3.77-2.814-3.738-5.116c0.031-2.266,2.287-2.899,4.202-3.419
	c0.853-0.232,1.771-0.597,2.601-0.48c7.762,1.099,14.037-3.372,20.794-5.747c5.243-1.843,5.66-7.677,5.984-12.04
	c0.634-8.552,1.67-17.399-2.612-25.551c-0.068-0.129-0.109-0.298-0.096-0.442c0.875-10.305-1.974-20.297-2.533-30.436
	c-0.436-7.894-2.42-15.337-4.043-22.893c-0.608-2.831-4.22-2.837-6.745-2.973c-1.301-0.07-2.459,0.642-3.231-1.025
	c-0.926-2,0.965-2.514,1.855-3.002c3.284-1.801,4.337-4.05,3.877-7.966c-0.738-6.287-0.464-12.688-0.752-19.034
	c-0.154-3.414,0.892-6.602,2.379-9.419c1.435-2.719,1.443-5.508,0.653-7.841c-4.812-14.223-9.258-28.489-7.79-43.764
	c0.277-2.879-2.41-4.492-1.944-7.206c1.397-8.126,1.075-16.601,4.697-24.258c0.709-1.498,0.759-2.877,0.768-4.349
	c0.037-6.679,0.004-13.359,0.024-20.038c0.008-2.855-0.209-5.705,0.874-8.499c0.588-1.518,1.043-4.055-0.501-4.543
	c-1.828-0.579-4.455-0.243-5.929,1.622c-1.671,2.113-2.897,4.573-4.508,6.74c-1.622,2.18-2.977,4.31-5.512,6.062
	c-8.564,5.922-16.324,1.197-24.36-0.665c-7.541-1.747-15.071-3.543-22.601-5.336c-1.318-0.314-2.667-0.593-3.912-1.108
	c-7.025-2.903-12.936,0.743-12.726,8.243c0.319,11.409-4.389,21.153-9.825,30.606c-1.632,2.839-0.653,6.046-1.569,8.169
	c-1.943,4.499-0.309,8.238,0.159,12.302c0.975,8.473,4.396,16.335,6.06,24.647c2.096,10.464,5.01,20.787,6.626,31.316
	c0.675,4.398,1.373,8.834,2.153,13.222c1.381,7.773-2.153,14.437-4.764,21.143c-3.671,9.428-6.972,18.973-9.488,28.721
	c-2.302,8.924-5.253,17.685-6.802,26.821c-1.816,10.713-0.564,21.44-0.669,32.161c-0.065,6.467-0.096,12.935-0.119,19.402
	c-0.012,3.459-1.362,7.335,3.214,9.299c2.378,1.02,1.987,2.991,1.035,4.831c-0.518,1-2.17,1.611-1.431,3.007
	c0.964,1.822,1.957-0.484,3.066-0.206c1.097,0.275,2.639-0.396,3.01,1.264c0.387,1.729-1.514,2.158-2.263,2.16
	c-8.101,0.017-16.445,1.653-23.521-4.519c-3.504-3.057-4.173-6.668-4.071-10.79c0.067-2.696,0.061-4.06-3.697-3
	c-8.021,2.263-15.601-1.537-20.083-8.958c-1.36-2.253-2.484-4.615-4.75-6.359c-2.041-1.57-4.051-2.175-6.253-1.368
	c-2.4,0.879-3.18,3.231-3.296,5.551c-0.18,3.625-0.048,7.267-0.048,10.907c-1.597,0.106-1.924-0.981-1.864-1.672
	c0.734-8.492-1.33-16.756-1.961-25.132c-0.128-1.707,0.106-3.31,1.116-4.731c5.964-8.384,7.226-17.252,4.838-27.439
	c-2.76-11.778-4.604-23.852-4.116-36.085c0.374-9.366,4.705-17.695,7.029-26.547c2.845-10.841,4.653-21.645,3.437-33.221
	c-0.863-8.218-3.24-16.444-2.267-24.853c0.742-6.418-1.488-11.959-4.556-17.411c-6.467-11.49-4.066-22.685,1.398-33.773
	c3.625-7.356,8.66-13.783,13.128-20.584c2.188-3.331,2.556-6.213-0.117-9.728c-4.764-6.268-6.853-13.512-6.26-21.493
	c0.293-3.934,1.953-7.462,2.905-11.192c0.989-3.876,1.371-7.674,0.297-11.5c-0.347-1.237-0.246-3.034-2.274-3.319
	c-2.334-0.329-1.055,2.446-2.601,2.949c-0.403,0.131,0.076,1.771-0.996,2.253c-0.449-0.364-1.005-1.122-1.332-1.034
	c-3.481,0.937-3.663,0.713-3.081-3.225c0.251-1.695,1.461-3.335,0.447-5.145c0.046-0.474,0.093-0.948,0.138-1.422
	c0.345-0.667,0.567-1.493-0.05-1.945c-0.58-0.425-0.887,0.344-1.169,0.792c-3.183,1.312-4.672,4.087-6.026,6.978
	C87.833,155.08,85.435,154.928,84.887,157.935z M134.616,322.225c-3.199,9.782-6.628,18.553-12.346,26.217
	c-0.781,1.047-0.899,2.107-1.17,3.287c-2.153,9.35-2.202,18.989-3.803,28.368c-3.395,19.89-2.504,39.314,3.805,58.496
	c0.418,1.27,1.111,2.23,2.075,1.487c4.177-3.223,8.333-6.648,10.636-11.505c2.458-5.182,0.084-10.618,0.083-15.942
	c-0.002-12.082-0.256-24.17,0.87-36.229c0.258-2.767,1.617-5.037,2.576-7.523c2.745-7.122,7.485-13.501,7.53-21.651
	C144.925,337.643,139.637,330.453,134.616,322.225z M231.743,198.16c3.44,0.438,5.227-1.355,7.776-3.573
	c3.88-3.375,6.524-7.761,10.549-11.068c3.349-2.751,2.642-8.685,4.837-12.98c3.15-6.161-0.674-11.115-3.746-16.438
	c-1.838-3.185-3.472-2.38-4.715-1.108c-3.779,3.868-8.257,6.572-12.743,9.475c-13.048,8.44-24.089,19.402-35.845,29.466
	c-1.524,1.305-0.934,1.789,0.332,2.59c2.907,1.838,5.807,3.516,9.418,3.613C215.672,198.354,223.713,195.344,231.743,198.16z"/>
</svg>
