<?xml version="1.0" encoding="utf-8"?>
<!-- Generator: Adobe Illustrator 17.0.0, SVG Export Plug-In . SVG Version: 6.00 Build 0)  -->
<!DOCTYPE svg PUBLIC "-//W3C//DTD SVG 1.1//EN" "http://www.w3.org/Graphics/SVG/1.1/DTD/svg11.dtd">
<svg version="1.1" id="Capa_1" xmlns="http://www.w3.org/2000/svg" xmlns:xlink="http://www.w3.org/1999/xlink" x="0px" y="0px"
	 width="360px" height="517px" viewBox="0 0 360 517" enable-background="new 0 0 360 517" xml:space="preserve">
<path fill="#A91D29" d="M78.34,150.051c-2.427,5.556-6.821,9.596-10.777,13.972c-9.354-2.804-11.725-10.059-11.162-19.258
	c-2.309,1.757-2.349,3.65-2.979,5.285c-0.621,1.61-2.829,3.39-3.422,2.208c-1.037-2.068-6.081-0.364-4.115-4.594
	c0.05-0.107,0.084-0.221,0.126-0.332c-0.135,0.08-0.27,0.16-0.222,0.132c-1.972,2.503-5.073,3.658-6.015,6.98
	c-0.437,1.539-1.86,4.198-4.215,2.334c-1.911-1.512-0.153-3.082,1.09-4.436c3.445-3.751,6.583-7.655,5.352-11.849
	c-6.71-4.776-8.717,4.207-15.201,3.492c4.73-3.537,5.818-8.316,8.64-11.964c0.575-0.743,1.162-1.697,0.294-2.622
	c-0.938-1-1.852-0.233-2.542,0.343c-2.262,1.889-5.103,2.072-7.76,2.522c-2.09,0.354-5.471,1.372-4.024-3.227
	c0.492-1.563-0.894-1.406-1.766-1.397c-1.968,0.021-3.67,0.799-5.44,1.693c-2.462,1.243-4.674,3.519-8.649,2.711
	c3.006-2.89,6.902-4.325,8.288-7.778c1.409-3.509,3.882-5.824,6.653-8.072c2.306-1.871,3.374-5.07,6.743-5.884
	c1.324-0.32-0.154-1.929,0.193-2.424c1.807-2.573-3.212-4.532-0.644-6.787c2.377-2.088,1.406-4.234,0.838-6.502
	c0.319-0.01,0.604-0.115,0.853-0.314c5.773-3.488,12.406-6.014,14.831-13.25c0.563-0.168,1.125-0.337,1.688-0.505
	c2.682-0.73,5.036-2.226,6.894-4.119c1.607-1.637,5.368-3.432,1.08-6.44c-1.269-0.89,0.068-1.508,0.888-1.935
	c1.253-0.652,2.885-0.425,3.882-1.67c4.444-1.84,7.721-5.287,10.895-8.62c6.902-7.247,14.203-14.046,21.611-20.753
	c2.569-2.326,5.68-3.693,8.673-5.239c1.543-0.797,3.461-1.008,4.94,0.52c0.88,0.909,2.047,1.482,3.03,0.777
	c4.736-3.396,9.155-0.433,12.189,1.944c9.974,7.813,18.165,17.015,17.491,31.112c-0.47,9.845,3.18,19.183,4.117,28.879
	c0.154,1.592,1.401,2.875,2.967,3.634c4.241,2.056,6.814,5.486,8.448,9.85c2.093,5.59,6.552,9.522,11.351,12.28
	c5.964,3.428,9.093,8.89,12.274,14.23c2.752,4.62,7.193,9.191,5.297,15.359c-1.671,5.435-1.522,10.552,0,16.004
	c0.979,3.505,2.67,2.469,3.962,1.141c9.052-9.303,20.715-15.484,29.575-25.022c7.05-7.59,14.305-14.992,21.607-22.342
	c2.485-2.501,2.658-6.171,5.339-8.651c6.837-6.326,12.998-13.408,21.49-17.74c3.051-1.556,5.659-3.849,9.268-4.469
	c1.689-0.29,2.576-2.134,2.459-4.235c-0.108-1.94-0.875-2.554-2.712-3.254c-7.264-2.767-10.729-9.275-13.761-15.717
	c-3.214-6.828-6.346-13.862-8.111-21.146c-1.265-5.218-3.732-9.45-6.22-13.924c-1.211-2.178-0.65-4.948,0.658-6.933
	c2.515-3.816,1.881-9.974,6.992-11.598c5.041-1.602,9.731-4.657,15.343-4.422c0.956,0.04,2.363,0.499,2.895-1.025
	c1.946,0,3.892,0,5.838,0c2.284,1.609,4.354,3.853,6.892,4.709c7.913,2.669,11.516,7.098,11.586,15.433
	c0.023,2.743,0.375,5.313,1.309,8.003c1.245,3.584,1.419,7.56-0.215,11.232c-3.651,8.201,1.472,23.931,9.956,27.225
	c7.356,2.856,13.917,7.375,21.551,9.538c2.186,0.619,3.499,2.296,4.558,4.54c3.587,7.6,7.797,14.909,11.326,22.534
	c3.411,7.371,9.106,13.641,9.416,22.616c0.11,3.182,0.603,7.164,2.428,10.379c0,3.567,0,7.135,0,10.702
	c-6.417,4.766-12.36,10.291-19.699,13.621c-3.548,1.61-4.803,3.514-4.722,7.475c0.613,29.811-0.489,59.606-1.193,89.404
	c-0.074,3.116-0.103,6.241-4.449,2.983c-1.759-1.318-3.101-0.598-3.913,1.102c-2.258,4.723-4.167,9.646-5.923,14.526
	c-2.351,6.532-5.979,12.421-8.344,18.895c-2.52,6.9-7.276,13.037-6.435,21.068c0.599,5.722,0.971,11.687,0.603,17.234
	c-0.505,7.602-0.134,14.824,1.49,22.148c1.945,8.773,3.568,17.698,2.85,26.649c-1.277,15.932-2.134,31.846-1.961,47.833
	c0.026,2.441-0.558,4.842,0.067,7.366c0.854,3.45-1.248,7.295,1.446,10.766c0.257,0.331-1.451,4.345-0.058,6.199
	c4.648,6.188,5.182,13.144,4.55,20.419c-0.433,4.984-4.631,8.078-9.407,6.619c-1.629-0.498-3.658-1.193-4.614-0.365
	c-4.563,3.949-10.228,7.284-12.077,13.337c-1.271,4.162-3.346,6.93-7.018,8.811c-9.729,0-19.458,0-29.188,0
	c-2.997-5.433,1.58-7.735,4.691-10.066c1.887-1.414,3.425-2.561,4.146-4.865c0.986-3.15,4.989-3.703,5.932-7.512
	c0.944-3.809-0.092-3.989-3.115-3.853c-6.259,0.28-12.372-0.435-18.217-2.95c-2.509-1.08-4.027-3.006-3.993-5.465
	c0.033-2.42,2.443-3.096,4.488-3.652c0.911-0.248,1.892-0.638,2.778-0.513c8.291,1.174,14.993-3.602,22.211-6.139
	c5.6-1.969,6.046-8.2,6.392-12.86c0.677-9.135,1.784-18.584-2.79-27.292c-0.073-0.138-0.116-0.318-0.103-0.472
	c0.935-11.007-2.108-21.68-2.706-32.509c-0.466-8.432-2.585-16.382-4.318-24.453c-0.649-3.024-4.507-3.03-7.205-3.176
	c-1.39-0.075-2.627,0.686-3.451-1.095c-0.989-2.136,1.031-2.685,1.981-3.206c3.508-1.924,4.632-4.326,4.141-8.509
	c-0.788-6.715-0.496-13.552-0.803-20.331c-0.165-3.647,0.953-7.052,2.541-10.061c1.533-2.904,1.541-5.883,0.698-8.375
	c-5.14-15.192-9.889-30.43-8.321-46.745c0.296-3.075-2.574-4.798-2.076-7.697c1.492-8.68,1.148-17.732,5.017-25.911
	c0.757-1.6,0.811-3.073,0.82-4.645c0.04-7.134,0.004-14.269,0.026-21.403c0.009-3.05-0.223-6.094,0.933-9.078
	c0.628-1.621,1.114-4.331-0.535-4.853c-1.953-0.618-4.758-0.26-6.333,1.732c-1.785,2.257-3.094,4.885-4.815,7.199
	c-1.733,2.328-3.18,4.604-5.887,6.475c-9.147,6.325-17.436,1.278-26.019-0.71c-8.055-1.866-16.098-3.784-24.141-5.699
	c-1.408-0.335-2.849-0.633-4.178-1.183c-7.504-3.101-13.817,0.794-13.593,8.804c0.341,12.186-4.688,22.594-10.494,32.691
	c-1.743,3.032-0.697,6.458-1.676,8.726c-2.075,4.806-0.33,8.799,0.17,13.14c1.041,9.05,4.695,17.448,6.473,26.326
	c2.239,11.177,5.351,22.203,7.077,33.449c0.721,4.698,1.467,9.436,2.3,14.123c1.475,8.303-2.3,15.42-5.089,22.583
	c-3.921,10.07-7.447,20.265-10.134,30.678c-2.459,9.532-5.611,18.89-7.265,28.648c-1.94,11.443-0.602,22.901-0.715,34.352
	c-0.069,6.908-0.103,13.816-0.127,20.724c-0.013,3.695-1.455,7.835,3.433,9.933c2.54,1.09,2.122,3.195,1.105,5.16
	c-0.553,1.068-2.318,1.721-1.529,3.212c1.03,1.946,2.09-0.517,3.275-0.22c1.172,0.294,2.819-0.423,3.215,1.35
	c0.413,1.847-1.617,2.305-2.417,2.307c-8.653,0.018-17.565,1.766-25.123-4.827c-3.743-3.265-4.457-7.122-4.348-11.525
	c0.072-2.88,0.065-4.337-3.949-3.204c-8.567,2.417-16.664-1.642-21.451-9.568c-1.453-2.406-2.653-4.929-5.074-6.792
	c-2.18-1.677-4.327-2.323-6.679-1.461c-2.563,0.939-3.397,3.451-3.52,5.929c-0.192,3.872-0.051,7.762-0.051,11.65
	c-1.706,0.113-2.055-1.048-1.991-1.786c0.784-9.071-1.421-17.897-2.095-26.844c-0.137-1.823,0.113-3.536,1.192-5.053
	c6.37-8.955,7.718-18.427,5.168-29.308c-2.948-12.58-4.918-25.477-4.396-38.543c0.4-10.004,5.026-18.9,7.508-28.356
	c3.039-11.579,4.97-23.12,3.671-35.484c-0.922-8.778-3.461-17.564-2.421-26.546c0.793-6.855-1.589-12.774-4.866-18.597
	c-6.908-12.273-4.343-24.23,1.493-36.074c3.872-7.857,9.25-14.722,14.022-21.986c2.337-3.558,2.73-6.636-0.125-10.391
	c-5.089-6.695-7.32-14.432-6.686-22.957c0.313-4.202,2.086-7.97,3.103-11.954c1.056-4.14,1.464-8.197,0.317-12.283
	c-0.371-1.321-0.263-3.241-2.429-3.545c-2.493-0.351-1.127,2.613-2.778,3.15c-0.43,0.14,0.081,1.892-1.064,2.406
	c-0.48-0.389-1.073-1.198-1.423-1.104c-3.718,1.001-3.913,0.762-3.291-3.445c0.268-1.81,1.56-3.562,0.477-5.495
	c0.049-0.506,0.099-1.013,0.147-1.519c0.369-0.712,0.606-1.595-0.053-2.078c-0.619-0.454-0.947,0.367-1.249,0.846
	c-3.4,1.401-4.99,4.365-6.437,7.453C81.486,147.001,78.925,146.839,78.34,150.051z M131.456,325.532
	c-3.417,10.448-7.08,19.817-13.187,28.003c-0.834,1.118-0.96,2.251-1.25,3.511c-2.3,9.987-2.352,20.283-4.062,30.301
	c-3.626,21.245-2.675,41.992,4.064,62.481c0.446,1.356,1.187,2.382,2.216,1.588c4.462-3.443,8.901-7.101,11.361-12.289
	c2.625-5.535,0.09-11.341,0.089-17.028c-0.002-12.905-0.273-25.816,0.929-38.697c0.276-2.955,1.727-5.38,2.751-8.036
	c2.932-7.607,7.995-14.421,8.043-23.126C142.468,342.001,136.819,334.321,131.456,325.532z M235.2,193.016
	c3.674,0.468,5.583-1.447,8.306-3.816c4.144-3.605,6.968-8.29,11.268-11.822c3.577-2.938,2.822-9.277,5.167-13.864
	c3.365-6.581-0.72-11.872-4.001-17.558c-1.963-3.402-3.708-2.542-5.036-1.183c-4.036,4.131-8.819,7.02-13.611,10.12
	c-13.937,9.015-25.73,20.724-38.287,31.473c-1.628,1.394-0.998,1.911,0.355,2.766c3.105,1.963,6.203,3.755,10.06,3.859
	C218.034,193.223,226.623,190.008,235.2,193.016z"/>
<g>
</g>
<g>
</g>
<g>
</g>
<g>
</g>
<g>
</g>
<g>
</g>
</svg>
