<?xml version="1.0" encoding="utf-8"?>
<!-- Generator: Adobe Illustrator 17.0.0, SVG Export Plug-In . SVG Version: 6.00 Build 0)  -->
<!DOCTYPE svg PUBLIC "-//W3C//DTD SVG 1.1//EN" "http://www.w3.org/Graphics/SVG/1.1/DTD/svg11.dtd">
<svg version="1.1" id="Capa_1" xmlns="http://www.w3.org/2000/svg" xmlns:xlink="http://www.w3.org/1999/xlink" x="0px" y="0px"
	 width="1060px" height="818px" viewBox="0 0 1060 818" enable-background="new 0 0 1060 818" xml:space="preserve">
<path fill="#E1B539" d="M331.898,343.9c6.569-11.403,10.176-23.941,13.674-36.475c3.957-14.178,7.332-28.518,11.287-42.697
	c3.05-10.935,10.55-16.305,20.785-15.576c13.079,0.932,23.424,8.913,24.949,19.323c0.509,3.477-0.576,6.755-1.475,10.065
	c-5.807,21.385-12.868,42.431-17.526,64.124c-1.368,6.368-2.33,12.849-2.36,19.384c-0.006,1.214-2.305,3.813,1.066,3.831
	c2.434,0.013,3.441-1.591,3.429-4.391c-0.022-5.735,0.174-11.465,0.888-17.219c2.862-23.063,11.969-43.583,24.722-62.685
	c8.959-13.419,20.166-24.066,36.109-28.794c7.872-2.335,15.597-2.305,23.234,0.854c1.613,0.668,2.858,1.173,4.408-0.653
	c4.581-5.399,10.364-6.525,17.287-4.976c8.292,1.856,16.313,4.226,20.561,12.089c2.077,3.845,4.006,3.485,7.168,2.615
	c2.14-0.589,2.339-1.964,2.712-3.714c3.616-16.972,7.122-33.971,11.069-50.867c2.402-10.284,7.943-18.218,18.964-20.882
	c17.457-4.22,31.487,9.796,27.245,27.219c-3.555,14.604-7.092,29.214-10.81,43.777c-0.715,2.803-0.933,4.197,2.737,4.055
	c3.299-0.128,6.623,0.98,8.893,3.461c2.319,2.533,3.626,1.581,5.457-0.433c8.535-9.393,18.949-15.093,31.865-15.262
	c17.038-0.224,29.425,9.706,33.455,26.702c1.205,5.082,2.418,10.195,1.778,16.787c3.227-4.785,5.667-8.484,8.187-12.126
	c6.473-9.355,14.682-16.974,24.08-23.256c9.784-6.54,20.299-8.437,31.39-3.454c2.479,1.114,4.093,0.775,6.233-0.92
	c11.213-8.88,31.521-2.483,35.492,11.09c1.542,5.27,0.235,10.451-0.859,15.63c-6.081,28.784-12.123,57.577-18.251,86.705
	c4.817,0.041,8.904-1.655,13.037-3.274c2.653-1.04,2.492-3.561,2.708-5.485c1.193-10.649,2.982-21.204,4.964-31.713
	c3.996-21.181,9.059-42.137,15.275-62.763c4.415-14.651,15.455-19.399,29.674-13.66c3.459,1.396,6.775,3.103,9.811,5.342
	c7.096,5.237,9.522,12.337,7.328,20.598c-5.013,18.872-10.439,37.634-15.685,56.445c-0.375,1.343-0.641,2.714-0.956,4.074
	c-0.509,0.583-0.799,1.185-0.17,1.872c0.232-0.466,0.465-0.932,0.697-1.399c6.559-13.292,10.15-27.571,13.88-41.803
	c2.749-10.489,4.402-21.253,8.274-31.461c3.031-7.991,7.869-14.091,16.833-14.79c10.793-0.84,19.876,3.017,26.202,12.147
	c2.323,3.352,2.348,7.339,2.091,11.492c1.991-0.154,2.43-1.844,3.321-2.921c9.96-12.033,21.848-20.3,38.283-19.909
	c10.548,0.251,19.037,4.551,24.955,13.224c5.175,7.585,7.886,16.186,8.268,25.385c1.128,27.161-8.906,50.72-23.7,72.708
	c-0.946,1.406-1.958,2.768-3.096,4.375c5.247,2.265,10.572,1.216,15.728,1.39c3.501,0.118,4.539,0.994,3.659,4.61
	c-2.126,8.729-3.737,17.584-5.819,26.326c-1.5,6.301-6.332,9.957-12.827,10.222c-12.64,0.515-24.413-2.262-34.855-9.601
	c-1.974-1.387-3.361-1.263-5.386-0.249c-12.22,6.12-24.916,10.416-38.868,9.876c-12.718-0.492-23.587-4.192-29.945-16.763
	c-3.475,3.527-6.4,7.279-10.21,10.163c-11.536,8.728-25.097,9.15-36.749,0.794c-1.445-1.036-2.453-1.431-4.068-0.565
	c-8.9,4.78-18.694,6.561-28.507,8.099c-2.504,0.392-3.249,1.171-3.622,3.66c-2.324,15.491-4.979,30.932-7.35,46.417
	c-2.748,17.945-23.15,27.636-38.618,18.236c-8.101-4.924-10.564-12.764-7.87-25.144c3.263-14.991,6.549-29.976,9.795-44.97
	c0.156-0.722,0.02-1.507,0.02-2.686c-11.707,5.205-22.841,4.449-33.449-2.264c-1.589-1.006-2.732,0.008-3.92,0.462
	c-19.733,7.523-38.647,6.79-56.352-5.605c-1.922-1.345-3.126-0.388-4.61,0.348c-12.847,6.367-26.209,10.397-40.778,9.853
	c-10.393-0.388-20.014-3.002-28.326-9.231c-3.104-2.326-5.123-2.15-8.147-0.126c-6.584,4.405-13.342,8.644-21.575,9.337
	c-15.587,1.311-29.338-1.969-38.93-15.582c-2.821,2.668-5.504,5.471-8.458,7.952c-11.517,9.672-24.936,11.053-38.146,3.853
	c-2.247-1.225-3.998-1.351-6.407-0.418c-12.218,4.728-24.747,5.676-37.493,2.316c-6.931-1.828-12.541-5.6-15.956-11.987
	c-1.559-2.915-2.491-2.161-4.191-0.271c-4.719,5.248-9.834,10.014-16.728,12.356c-9.738,3.309-19.048,2.773-27.412-3.596
	c-2.102-1.6-3.459-1.462-5.685-0.542c-5.888,2.433-12.077,3.985-18.385,4.913c-3.76,0.553-6.889,1.708-9.785,4.551
	c-13.323,13.082-29.48,20.447-48,22.649c-6.557,0.78-6.535,0.753-6.622,7.505c-0.182,14.027,0.625,28.084-0.793,42.076
	c-2.903,28.633-15.386,49.487-48.798,57.306c-20.903,4.892-40.407,0.408-59.849-5.85c-16.527-5.32-31.316-13.768-42.738-27.28
	c-22.39-26.488-10.765-63.863,22.476-72.278c22.43-5.677,45.649,2.906,58.857,21.757c10.58,15.101,6.613,38.565-8.334,49.302
	c-0.859,0.616-1.713,1.237-2.723,1.965c12.122,4.264,31.489-0.827,39.465-10.188c3.98-4.671,6.085-10.089,6.092-16.244
	c0.012-11.047,1.669-22.085,0.046-33.145c-0.541-3.685-0.669-7.429-1.078-11.135c-0.275-2.497-1.693-3.466-4.279-3.984
	c-18.912-3.788-37.49-8.654-54.703-17.749c-26.348-13.923-48.255-32.534-62.504-59.183c-6.42-12.013-10.847-24.718-12.403-38.333
	c-0.064-0.555-0.538-1.064-0.822-1.594c0-7.802,0-15.604,0-23.406c0.264-0.367,0.717-0.712,0.766-1.106
	c1.767-14.164,7.126-26.969,14.992-38.731c15.957-23.859,38.735-39.334,64.39-50.768c15.833-7.056,32.903-11.125,48.407-19.144
	c2.328-1.204,3.178-2.048,2.934-5.129c-0.783-9.916-0.856-19.872,0.169-29.841c1.285-12.494,5.626-24.113,9.451-35.89
	c7.665-23.599,21.331-43.008,40.969-58.213c8.569-6.635,18.481-10.47,28.573-13.96c4.993,0,9.987,0,14.98,0
	c20.211,8.354,27.402,26.455,31.558,45.355c9.701,44.118-4.925,82.165-32.499,116.047c-18.051,22.18-41.794,35.361-69.018,43.902
	c-24.992,7.84-49.65,17.088-72.769,29.762c-12.012,6.584-22.4,15.09-30.872,26.005c-8.865,11.421-11.238,40.562,0.136,55.362
	c19.397,25.238,44.294,39.312,75.159,44.075c8.41,1.299,8.419,1.235,8.419-7.116c0-20.748,0-41.495,0-62.242
	c0-1.697,0-3.396,0-5.218c-6.617,0.595-12.574,2.077-18.034,5.241c-10.055,5.827-12.862,15.582-7.43,25.941
	c2.987,5.697,7.177,10.563,11.223,15.487c2.071,2.519,2.119,4.333-0.001,6.776c-2.958,3.408-5.679,7.034-8.315,10.701
	c-1.134,1.578-2.137,1.73-3.86,1.06c-21.487-8.373-37.175-23.23-41.111-45.901c-3.586-20.648,0.241-43.344,22.799-56.98
	c12.667-7.656,25.602-14.509,40.509-17.096c22.663-3.935,43.882,0.329,64.259,10.172c23.357,11.282,40.93,28.098,49.866,52.956
	c1.367,3.801,2.18,7.802,3.574,12.901c4.969-26.353,11.054-51.104,17.64-75.734c1.24-4.634,2.337-9.331,4.516-13.672
	c4.551-9.064,12.171-12.516,22.046-10.208c6.173,1.444,11.83,3.952,16.723,7.891c5.769,4.645,8.683,10.683,6.508,18.15
	c-6.374,21.874-12.929,43.694-19.389,65.543c-0.303,1.027-0.377,2.122-0.557,3.186c-0.803,0.418-0.862,1.125-0.712,1.894
	c0.023,0.123,0.197,0.215,0.301,0.322C331.366,345.179,331.632,344.54,331.898,343.9z M704.179,370.786l0.05,0.043
	c-0.927,10.895-4.136,21.348-6.269,32.007c-3.816,19.067-7.953,38.07-11.794,57.132c-1.179,5.85,1.614,9.666,7.378,10.95
	c9.201,2.05,17.437-3.375,18.974-12.705c2.58-15.656,5.071-31.328,7.508-47.008c1.335-8.589,2.867-10.021,11.375-11.427
	c11.839-1.956,23.791-3.762,33.424-11.944c1.542-1.31,2.296-0.621,3.208,0.838c7.195,11.516,21.285,12.571,31.97,1.939
	c6.633-6.6,11.002-14.685,15.616-22.634c2.279-3.927,4.512-7.88,6.766-11.822c0.772,8.611-0.696,16.785-0.3,25.041
	c0.341,7.117,4.059,12.469,10.822,14.807c3.697,1.279,7.568,1.852,11.476,1.883c14.018,0.114,26.505-4.984,38.459-11.648
	c2.711-1.512,4.453-1.538,6.899,0.701c8.442,7.73,18.765,10.716,30.028,11.022c3.26,0.088,5.296-0.91,5.851-4.467
	c0.622-3.99,1.392-7.992,2.552-11.853c0.981-3.265,0.388-4.336-3.184-4.419c-4.69-0.11-9.24-1.276-13.214-4.061
	c-5.439-3.812-5.737-5.271-1.501-10.247c12.89-15.139,21.269-32.539,25.898-51.775c3.167-13.162,3.648-26.239-2.656-38.78
	c-4.55-9.054-13.295-13.204-23.295-11.661c-13.765,2.124-22.626,11.022-29.327,21.999c-16.338,26.759-17.788,55.158-7.466,84.388
	c0.936,2.651,0.97,3.841-1.962,4.634c-5.405,1.461-10.679,3.432-16.111,4.764c-9.059,2.22-14.782-2.428-14.246-11.779
	c0.418-7.284,1.026-14.587,2.989-21.701c6.255-22.657,12.471-45.323,18.613-68.011c1.89-6.982,0.036-10.636-6.479-13.436
	c-1.569-0.674-3.211-1.215-4.863-1.655c-5.715-1.524-9.83,0.422-12.134,5.814c-1.714,4.013-3.047,8.159-4.026,12.425
	c-4.91,21.403-9.93,42.77-18.642,63.056c-4.272,9.946-9.303,19.391-16.786,27.359c-1.948,2.075-4.194,3.245-7.056,2.537
	c-2.96-0.732-3.531-3.397-4.021-5.792c-0.561-2.749-0.355-5.537,0.43-8.318c3.634-12.884,7.123-25.809,10.738-38.698
	c4.12-14.688,8.349-29.346,12.471-44.033c1.283-4.572,0.201-8.489-4.201-10.758c-5.557-2.865-10.96-7.259-17.782-3.571
	c-1.264,0.683-2.269,2.173-2.958,3.515c-1.059,2.063-1.943,4.265-2.549,6.504c-8.103,29.908-15.621,59.951-18.935,90.844
	c-0.715,6.666-3.77,10.756-9.938,13.279c-7.904,3.234-16.263,4.088-24.504,5.646c-5.146,0.974-5.338,0.769-4.222-4.517
	c7.166-33.947,14.304-67.9,21.496-101.842c0.653-3.081,0.474-5.933-1.56-8.406c-5.603-6.817-16.788-6.229-21.015,1.449
	c-2.022,3.673-3.458,3.595-6.63,1.506c-11.624-7.656-20.053-7.088-31.29,1.302c-14.841,11.081-24.579,25.932-31.674,42.686
	c-7.285,17.2-10.084,35.252-9.479,53.876c0.085,2.631,0.566,5.645-2.152,7.226c-9.784,5.684-22.787,6.45-31.289-2.996
	c-1.821-2.023-1.342-3.295,0.246-5.116c7.626-8.746,13.995-18.354,18.751-28.951c7.484-16.675,12.898-33.721,9.806-52.45
	c-2.191-13.264-8.773-21.273-20.462-22.746c-9.672-1.219-18.013,2.391-25.146,8.951c-17.793,16.365-23.447,37.687-24.501,60.723
	c-0.576,12.568,1.575,24.839,6.215,36.585c0.968,2.45,1.048,3.91-1.995,4.736c-5.698,1.548-11.12,3.982-17.001,5.019
	c-13.365,2.356-24.151-8.031-21.611-21.253c3.843-20.014,7.934-39.98,11.906-59.969c0.554-2.791,1.858-4.457,5.046-4.294
	c3.423,0.175,6.864,0.072,10.296,0.008c6.045-0.111,7.501-1.256,9.174-7.183c0.421-1.493,0.71-3.028,1.001-4.554
	c0.885-4.627-0.683-6.682-5.521-6.909c-3.425-0.161-6.874-0.198-10.294,0.013c-3.518,0.218-4.595-0.526-3.586-4.424
	c4.799-18.531,9.29-37.141,13.815-55.742c0.809-3.325,1.548-6.827-0.58-9.951c-4.704-6.908-15.884-7.2-21.12-0.613
	c-2.073,2.608-3.337,5.616-4.042,8.856c-3.706,17.027-7.683,34.003-10.955,51.113c-1.289,6.741-3.885,10.857-11.114,11.314
	c-4.385,0.277-6.465,2.978-6.983,7.336c-1.168,9.832-1.27,9.895,8.553,10.87c2.278,0.227,3.059,1.006,2.618,3.207
	c-4.371,21.821-8.693,43.668-15.147,64.982c-2.677,8.839-8.614,15.03-18.179,17.037c-8.428,1.769-13.612-3.383-13.076-12.028
	c0.741-11.971,4.136-23.252,7.511-34.584c5.555-18.651,11.202-37.277,16.75-55.93c2.123-7.138,0.619-10.572-6.097-13.449
	c-2.688-1.151-5.672-1.602-8.507-2.42c-4.167-1.202-6.554,0.831-7.98,4.439c-0.626,1.585-1.074,3.258-1.433,4.927
	c-0.702,3.261-1.845,3.864-4.472,1.339c-5.055-4.858-11.137-7.243-18.258-6.93c-12.062,0.53-21.373,6.657-29.071,15.129
	c-11.131,12.252-18.805,26.718-24.628,42.152c-5.682,15.058-8.064,30.669-7.466,46.748c0.105,2.821,0.313,5.88-2.986,7.186
	c-3.174,1.256-6.408,2.587-9.74,3.171c-10.371,1.819-14.294-1.899-13.282-12.387c1.271-13.181,3.196-26.249,6.892-39.017
	c4.762-16.447,9.316-32.953,14.099-49.393c1.225-4.209,1.354-8.088-2.057-11.209c-4.282-3.92-9.667-5.158-15.195-4.395
	c-5.449,0.753-6.472,5.603-7.683,10.043c-5.934,21.763-10.235,43.993-18.551,65.074c-4.417,11.197-9.355,22.15-17.117,31.495
	c-2.528,3.043-5.306,6.627-10.18,4.949c-2.86-0.985-4.043-6.578-3.298-11.856c1.945-13.795,6.351-26.943,10.297-40.214
	c4.57-15.369,9.158-30.732,13.841-46.068c1.064-3.481,0.134-6.148-2.558-8.295c-4.358-3.475-9.375-5.586-14.85-6.436
	c-3.707-0.576-6.415,1.347-7.934,4.552c-1.257,2.652-2.115,5.521-2.916,8.36c-4.313,15.28-7.922,30.738-11.632,46.173
	c-3.531,14.695-7.085,29.41-7.797,44.526c-0.264,5.603-2.452,8.749-7.096,10.782c-2.555,1.119-5.198,2.115-7.891,2.827
	c-6.695,1.769-7.448,0.979-6.437-5.684c1.648-10.864,2.092-21.61-1.807-32.256c-11.919-32.54-45.884-52.031-77.721-55.946
	c-21.209-2.608-40.757,3.284-58.653,14.834c-4.068,2.625-8.122,5.203-11.393,8.856c-6.475,7.231-7.58,16.185-9.498,25.302
	c-4.651,22.115,16.653,46.508,34.988,51.212c0.364,0.521,0.763,0.879,1.366,0.296c-0.321-0.259-0.642-0.52-0.963-0.779
	c-0.571-2.025-2.073-3.437-3.299-5.035c-3.702-4.822-7.525-9.557-10.141-15.114c-6.44-13.685-2.535-28.221,9.901-36.676
	c9.238-6.28,19.686-8.233,30.602-8.604c4.159-0.141,5.575,1.431,5.541,5.787c-0.208,25.901-0.044,51.804-0.157,77.706
	c-0.02,4.598,2.123,10.726-1.026,13.403c-3.065,2.605-8.937,0.455-13.573-0.153c-33.899-4.444-62.148-18.208-84.754-45.119
	c-19.687-23.436-15.186-62.315,3.831-80.23c10.937-10.303,22.836-18.891,36.301-25.246c24.26-11.45,49.392-20.748,74.841-29.187
	c6.52-2.163,13.118-4.244,18.972-7.83c44.593-27.318,69.062-66.247,68.514-119.491c-0.172-16.721-5.2-31.837-14.814-45.484
	c-5.313-7.54-12.136-10.291-21.088-8.354c-12.887,2.789-23.707,9.432-33.088,18.401c-16.926,16.184-26.752,36.329-33.3,58.614
	c-5.384,18.324-6.909,36.632-4.031,55.394c0.474,3.089-0.512,5.397-3.269,6.466c-11.629,4.506-22.345,11.283-34.372,14.66
	c-21.665,6.084-40.872,16.519-58.508,30.36c-36.086,28.33-46.306,71.242-26.105,112.455c16.29,33.236,43.98,53.402,77.625,66.48
	c12.688,4.932,26.094,7.147,39.276,10.202c3.92,0.908,6.323,2.358,6.997,7.18c2.322,16.592,2.786,33.138,1.885,49.864
	c-0.703,13.046-6.115,22.679-16.554,30.284c-19.172,13.968-55.256,8.473-68.603-2.577c-2.503-2.073-5.345-4.039-6.359-7.848
	c6.247,1.135,12.17,1.033,18.076,0.852c8.852-0.272,16.447-3.546,20.376-11.75c4.263-8.898,5.409-18.272-0.563-27.166
	c-10.465-15.589-29.63-22.348-49.097-17.403c-15.149,3.847-26.007,18.278-24.753,33.725c0.932,11.484,6.968,20.601,15.52,27.896
	c11.575,9.873,25.083,15.979,39.774,19.921c13.815,3.707,27.58,6.8,41.9,3.701c10.372-2.244,20.684-4.698,28.926-12.17
	c11.612-10.529,15.303-24.421,15.921-39.181c0.667-15.89,0.255-31.824,0.299-47.74c0.021-7.348,0.01-7.235,7.19-7.612
	c20.501-1.077,38.742-7.537,53.169-22.793c2.353-2.488,5.101-3.872,8.478-4.485c9.941-1.802,20.089-3.074,28.436-9.637
	c1.425-1.121,2.573-0.627,3.449,0.853c7.526,12.707,22.833,10.729,31.967,1.377c5.436-5.565,9.366-12.029,13.186-18.642
	c3.521-6.096,6.955-12.242,10.428-18.366c0.369,4.073-0.092,7.767-0.5,11.466c-0.409,3.712-0.708,7.437-1.157,11.144
	c-1.42,11.709,3.939,19.181,14.746,21.072c11.65,2.038,22.662,0.273,33.102-5.036c2.444-1.242,3.919-1.115,6.105,0.63
	c9.925,7.923,20.443,7.877,30.295-0.039c9.059-7.28,14.907-17.063,20.503-27.012c0.992-1.764,1.516-3.882,3.627-5.662
	c-0.121,7.19-1.529,13.659-1.059,20.223c0.388,5.417,2.055,10.392,6.987,13.017c10.032,5.34,20.517,7.279,31.335,2.063
	c6.344-3.059,12.038-7.192,17.909-11.026c1.535-1.003,2.742-1.883,4.304,0.153c7.802,10.171,18.787,13.399,30.936,13.536
	c13.96,0.157,26.618-4.523,38.489-11.452c2.675-1.562,4.486-1.742,6.988,0.314c15.497,12.737,32.673,14.538,50.789,6.701
	c5.056-2.187,8.8-1.765,13.317,1.11c9.571,6.092,20.412,4.712,28.802-2.987c3.701-3.396,6.752-7.307,9.622-11.421
	C699.637,377.019,701.082,373.301,704.179,370.786z M556.376,366.332c0.779-0.059,1.882-0.059,2.952-0.246
	c1.216-0.213,2.392-0.652,3.606-0.887c2.554-0.494,3.474-1.637,2.667-4.412c-5.34-18.37-4.617-36.835-0.565-55.319
	c0.3-1.373,1.719-3.318-0.784-3.648c-1.99-0.263-4.534-1.134-5.3,2.626c-3.589,17.614-7.597,35.144-10.494,52.895
	C547.513,363.137,550.314,366.324,556.376,366.332z M490.68,361.569c0.433,1.207-0.878,3.346,0.526,4.097
	c1.793,0.958,3.484-0.827,4.908-1.884c3.282-2.435,4.752-6.115,5.762-9.877c4.453-16.582,8.259-33.315,11.769-50.125
	c0.939-4.5-2.7-3.359-4.321-4.382c-2.294-1.447-2.245,1.187-2.612,2.379c-3.139,10.203-6.354,20.388-9.2,30.673
	C494.88,341.968,491.166,351.252,490.68,361.569z M856.539,338.068c-2.746,8.42-4.613,16.172-4.488,24.288
	c0.019,1.241-1.019,3.175,0.921,3.593c2.328,0.503,4.492-0.842,6.682-1.576c1.952-0.654,0.953-2.105,0.663-3.09
	C858.163,353.972,857.249,346.463,856.539,338.068z M626.994,365.76c1.64,1.002,3.309,1.246,5.02,0.674
	c1.735-0.579,4.556,0.415,4.699-2.649c0.182-3.869,0.044-7.754,0.044-12.548C633.066,356.728,630.039,361.232,626.994,365.76z"/>
<path fill="#E1B539" d="M846.069,675.67c-4.671,10.697-7.936,21.861-10.789,33.14c-3.324,13.143-10.27,22.914-23.993,26.509
	c-5.457,1.43-10.935,1.272-15.527-2.449c-1.864-1.51-3.284-0.991-5.048-0.435c-14.979,4.731-29.125,3.865-41.733-6.485
	c-1.412-1.159-2.216-1.123-3.512,0.017c-10.17,8.948-22.627,9.358-35.198,9.345c-1.68-0.002-2.138-0.414-1.739-2.195
	c0.933-4.162,1.595-8.384,2.623-13.971c-4.128,3.954-7.108,7.086-10.591,9.658c-14.574,10.761-31.797,9.685-44.339-3.061
	c-1.83-1.86-2.933-2.207-4.752-0.185c-2.626,2.918-5.842,5.159-9.294,7.01c-9.031,4.842-17.985,4.517-26.488-1.095
	c-2.866-1.892-5.052-1.836-8.043-0.444c-10.603,4.936-19.308,12.505-28.271,19.738c-21.059,16.992-43.078,32.765-68.991,41.215
	c-50.434,16.447-97.963,9.049-139.668-23.623c-34.259-26.839-58.315-61.868-71.365-103.878c-1.703-5.483-1.978-10.947-0.542-16.539
	c2.118-8.248,8.839-13.492,16.991-13.085c8.211,0.41,14.507,6.722,15.882,15.107c0.979,5.97-0.477,11.799-0.148,17.706
	c0.245,4.394,0.822,8.701,2.739,12.649c17.501,36.042,43.676,63.439,80.694,79.578c16.352,7.129,33.751,9.072,52.641,7.994
	c-6.009-3.09-11.16-5.443-16.024-8.287c-33.176-19.385-53.713-48.083-59.639-85.919c-4.54-28.984-0.354-57.083,16.177-82.337
	c0.511-0.782,1.009-1.578,1.585-2.312c4.745-6.038,5.881-6.288,12.67-2.863c1.387,0.699,2.785,1.377,4.172,2.077
	c7.934,4.002,7.519,4.817,5.351,13.737c-4.591,18.896-10.375,37.731-9.541,57.482c1.418,33.578,17.964,59.459,50.831,70.862
	c15.678,5.439,31.454,7.46,47.639,3.711c20.559-4.763,38.113-28.25,36.401-48.551c-0.973-11.544-7.852-19.061-18.116-23.508
	c-13.395-5.803-26.998-11.124-40.393-16.925c-12.351-5.349-24.47-11.384-32.832-22.399c-14.304-18.843-20.855-39.816-17.66-63.813
	c2.003-15.039,6.304-28.799,15.974-40.574c12.381-15.075,28.324-23.829,47.634-26.816c6.077-0.94,12.121-0.516,18.622-0.923
	c-6.336-10.251-5.244-21.583-3.47-32.127c3.988-23.714,27.509-36.069,50.078-27.481c18.748,7.134,31.405,25.864,31.736,45.988
	c0.184,11.218-2.591,21.865-4.982,32.595c-2.719,12.202-3.783,24.595-4.325,36.985c-0.483,11.055-1.983,21.585-7.664,31.297
	c-1.181,2.018-2.248,3.099-4.616,2.731c-3.069-0.477-6.155-0.862-9.242-1.199c-2.754-0.301-3.785-2.196-4.755-4.469
	c-4.147-9.713-7.705-19.696-13.078-28.858c-4.889-8.337-11.057-15.422-19.515-20.335c-17.313-10.058-38.538,0.2-41.609,19.924
	c-0.801,5.146-1.137,10.266-0.568,15.349c0.9,8.046,5.185,14.045,12.008,18.515c12.603,8.257,26.87,12.836,40.484,18.871
	c13.951,6.186,27.946,12.358,38.815,23.655c5.106,5.307,9.158,11.334,12.654,18.676c4.44-15.262,8.66-29.715,12.844-44.177
	c1.168-4.039,2.319-8.095,4.718-11.605c8.992-13.158,34.037-11.918,42.049,1.966c2.5,4.332,1.783,9.001,2.012,14.027
	c1.88-1.291,3.424-2.512,5.112-3.484c8.401-4.833,16.975-5.061,25.155,0.16c3.288,2.098,4.131,1.493,5.3-1.821
	c2.061-5.84,5.6-10.749,10.826-14.273c11.91-8.029,27.632-3.081,33.867,10.728c4.949,10.96,4.426,22.333,2.573,33.873
	c-3.657,22.783-10.152,44.71-19.243,65.894c-0.103,0.071-0.22,0.128-0.302,0.218c-0.037,0.041-0.005,0.147-0.004,0.224
	c0.08-0.164,0.159-0.329,0.24-0.492c3.67-0.477,4.739-3.645,6.125-6.251c6.245-11.749,9.895-24.434,12.573-37.362
	c3.112-15.016,5.662-30.147,8.559-45.209c2.834-14.734,11.226-23.113,25.685-25.867c14.903-2.839,25.982,7.618,22.865,22.423
	c-3.668,17.424-8.328,34.637-12.435,51.972c-3.071,12.959-5.957,25.962-8.885,38.955c-0.19,0.844-0.024,1.769-0.024,3.212
	c4.406-3.585,7.981-7.059,9.661-12.183c7.591-23.158,13.852-46.631,17.451-70.781c1.118-7.498,2.345-15.009,5.593-22.012
	c8.007-17.266,25.704-16.381,36.779-9.917c4.126,2.408,6.048,6.546,7.241,11.663c3.997-4.52,8.684-7.289,13.76-9.426
	c9.173-3.859,18.24-4.289,26.508,2.012c8.648,6.59,11.934,15.499,10.394,26.323c-1.598,11.23-4.705,22.119-7.131,33.162
	c-0.302,1.374-0.787,2.667-0.367,4.189c1.792-1.372,1.845-3.525,2.493-5.306c7.893-21.693,20.25-40.37,38.36-54.748
	c12.25-9.726,26.111-11.857,40.674-5.101c2.23,1.034,3.36,0.415,4.808-1.053c8.809-8.93,26.147-6.389,33.626-0.009
	c2.433,2.076,3.289,5.151,5.323,7.439c0,4.369,0,8.738,0,13.107c-5.318,18.237-10.623,36.477-15.956,54.71
	c-3.676,12.565-7.39,25.12-11.212,38.105c5.37-0.046,10.094-0.801,14.786-1.731c2.887-0.572,4.55-0.3,3.735,3.361
	c-2.121,9.513-3.974,19.085-6.124,28.591c-1.681,7.431-6.056,11.055-13.595,11.716c-9.461,0.829-11.118,2.018-13.87,11.281
	c-3.545,11.928-8.689,23.17-13.652,34.544c-5.27,12.077-13.209,20.782-25.563,25.394c-3.745,0-7.49,0-11.235,0
	c-20.102-7.29-21.617-31.421-14.414-48.445c1.826-4.315,4.211-8.311,6.961-12.11c2.634-3.639,5.518-7.045,10.167-10.933
	c-9.931,1.139-17.944-0.373-25.182-5.147c-1.473-0.972-2.942,0.057-4.411,0.574c-12.771,4.489-25.764,5.527-38.939,2.055
	c-17.864-4.708-28.065-20.85-25.338-39.105c0.896-5.996,2.791-11.772,3.33-17.812c0.803-0.654,1.078-2.044,0.468-2.241
	C846.112,673.587,846.559,675.113,846.069,675.67z M900.729,650.67c-1.313,1.044-0.821,2.489-0.85,3.819
	c-1.303,1.01-1.216,2.179-0.02,4.287c0-2.004,0-3.153,0-4.303c1.625-0.821,0.827-2.379,1.094-3.616
	c1.044-0.781,1.072-1.688,0.161-3.05C900.956,648.98,900.842,649.825,900.729,650.67z M967.115,690.847
	c0.14,0.125,0.28,0.249,0.421,0.373c-2.674,12.001-6.032,23.818-10.137,35.399c-2.564,7.235-7.144,13.117-13.634,17.348
	c-2.946,1.92-5.065,4.605-7.171,7.301c-8.204,10.496-12.031,22.127-8.569,35.407c2.328,8.933,10.398,12.477,18.583,8.369
	c5.445-2.733,9.546-6.656,12.348-12.256c6.569-13.123,12.365-26.498,16.556-40.605c3.084-10.379,9.748-16.889,21.376-16.736
	c2.975,0.039,5.081-1.163,5.701-4.345c0.921-4.733,1.913-9.452,2.879-14.177c0.42-2.053-0.145-2.835-2.439-2.448
	c-4.599,0.775-9.286,1.064-13.854,1.974c-3.246,0.647-3.586-0.531-2.806-3.129c0.358-1.192,0.633-2.409,0.984-3.603
	c7.848-26.732,15.758-53.447,23.519-80.204c2.077-7.163,4.728-14.192,5.693-21.648c0.419-3.234,1.137-6.601-1.622-9.256
	c-6.515-6.272-19.424-4.169-22.673,4.207c-1.912,4.927-3.774,4.549-7.01,1.855c-0.593-0.494-1.314-0.833-1.979-1.24
	c-12.169-7.446-25.128-6.594-35.813,2.8c-14.787,12.999-25.708,28.755-32.599,47.245c-5.947,15.955-8.204,32.535-8.41,49.47
	c-0.076,6.264-1.297,7.758-7.435,9.461c-1.649,0.457-3.302,1.152-4.976,1.225c-11.115,0.484-16.973-2.752-14.023-14.137
	c4.878-18.822,9.38-37.746,13.748-56.694c2.264-9.821,5.595-19.508,5.237-29.783c-0.257-7.365-6.235-13.78-13.131-14.075
	c-6.922-0.296-13.231,2.192-17.641,7.198c-11.759,13.345-22.801,27.286-30.035,43.79c-0.603,1.375-0.942,3.103-3.124,4.031
	c0.282-1.573,0.402-2.638,0.668-3.666c3.942-15.212,7.841-30.436,11.902-45.616c1.183-4.423-0.638-6.861-4.525-8.314
	c-9.302-3.477-16.318-0.335-19.771,8.993c-0.967,2.613-1.705,5.361-2.142,8.111c-4.411,27.71-10.593,54.982-19.59,81.598
	c-2.474,7.317-7.443,12.549-13.202,17.139c-3.799,3.029-8.849,2.553-13.519-0.595c-3.713-2.503-4.498-5.953-3.623-10.215
	c4.973-24.237,10.762-48.282,16.706-72.295c1.904-7.693,4.541-15.251,5.273-23.181c0.512-5.55-1.698-7.754-7.16-8.107
	c-10.618-0.686-17.752,4.179-20.127,14.728c-2.56,11.37-4.383,22.904-6.553,34.361c-3.222,17.007-7.175,33.816-14.34,49.676
	c-2.852,6.312-6.026,13.263-12.9,15.311c-7.3,2.175-8.542,6.993-9.301,13.024c-0.29,2.309-0.773,4.611-1.387,6.856
	c-0.723,2.642,0.301,2.888,2.603,2.512c5.671-0.928,10.63-3.146,15.174-6.728c3.892-3.068,6.372-7.478,10.683-10.854
	c2.688,11.882,10.857,16.624,21.689,17.853c10.474,1.188,19.511-2.356,27.681-9.583c0.182,1.346,0.299,1.92,0.331,2.499
	c0.421,7.463,3.662,9.761,10.686,7.234c7.266-2.613,11.804-7.849,13.774-15.32c6.699-25.404,15.231-50.071,29.338-72.472
	c2.909-4.619,6.038-9.105,9.914-12.98c1.572-1.571,4.041-3.116,5.783-2.411c1.82,0.736,1.607,3.677,1.705,5.82
	c0.103,2.243-0.695,4.295-1.288,6.385c-5.399,19.009-10.986,37.969-15.115,57.313c-3.448,16.153,2.519,27.694,16.774,31.746
	c12.822,3.645,25.329,2.106,37.228-3.758c2.686-1.324,4.318-1.512,6.853,0.648c8.552,7.288,18.241,7.816,27.12,1.828
	c3.35-2.26,6.322-5.005,9.06-8.053C957.658,706.563,962.302,698.656,967.115,690.847z M594.96,706.176
	c-0.202-1.323-0.358-1.783-0.321-2.227c0.064-0.77,0.153-1.562,0.394-2.289c3.498-10.544,3.977-21.418,3.296-32.358
	c-1.419-22.788-11.197-40.596-31.681-51.691c-6.024-3.263-12.251-6.17-18.486-9.021c-12.036-5.505-24.654-9.652-36.33-16.034
	c-11.693-6.393-21.189-14.367-23.497-28.395c-0.893-5.425-0.707-10.909-0.297-16.341c2.333-30.917,34.846-46.683,60.681-29.503
	c8.48,5.64,14.918,13.137,20.163,21.78c5.042,8.308,8.365,17.398,12.228,26.246c0.464,1.064,0.583,2.68,2.205,2.663
	c1.331-0.015,1.412-1.477,1.992-2.336c3.939-5.82,3.172-12.648,3.522-19.045c0.957-17.464,3.022-34.708,7.251-51.702
	c3.746-15.052,3.732-29.646-6.175-42.81c-8.076-10.731-23.115-16.857-34.084-13.517c-7.834,2.385-14.038,7.055-17.012,14.862
	c-3.371,8.849-2.871,18.131-0.867,27.138c0.773,3.473,4.77,3.428,7.994,2.929c3.241-0.502,4.877-2.243,4.811-5.729
	c-0.076-4.007-1.82-7.096-4.287-10.07c-4.477-5.399-4.324-9.657,0.238-15.017c8.038-9.444,15.907-10.604,27.886-4.008
	c9.467,5.213,15.322,13.04,14.979,24.06c-0.385,12.324-5.553,21.81-18.043,26.242c-8.932,3.169-18.012,3.457-27.207,2.312
	c-11.336-1.411-22.675-2.411-33.94,0.081c-41.849,9.26-56.323,42.968-51.608,78.809c3.345,25.431,17.842,43.993,42.587,53.647
	c14.799,5.773,29.512,11.839,43.926,18.503c15.704,7.261,24.643,23.317,23.012,39.44c-2.223,21.971-23.71,46.776-45.325,51.556
	c-16.597,3.671-33.118,2.701-49.298-2.825c-19.647-6.71-37.054-16.52-48.063-35.013c-13.081-21.974-16.834-45.622-12.066-70.645
	c1.103-5.787,3.566-11.414,3.949-17.211c0.429-6.482,1.53-12.61,3.78-18.643c0.828-2.219,2.769-5.581,0.462-6.734
	c-2.249-1.124-3.851,2.388-5.154,4.403c-14.623,22.599-18.133,47.706-14.37,73.593c4.844,33.32,22.456,59.064,50.949,76.996
	c12.024,7.568,24.807,13.754,39.233,15.514c6.538,0.798,12.993,2.007,19.378,4.014c-13.56,3.991-26.45,9.638-40.862,10.61
	c-23.543,1.587-46.03-1.654-67.224-12.055c-30.256-14.848-53.162-37.638-70.842-66.124c-8.307-13.384-13.582-27.283-11.48-43.312
	c0.241-1.833,0.145-3.769-0.15-5.6c-0.554-3.433-2.516-5.871-6.17-5.888c-3.341-0.015-5.36,1.901-6.058,5.345
	c-0.599,2.955-0.792,5.763-0.047,8.756c1.319,5.301,2.868,10.514,4.862,15.592c8.067,20.546,20.549,38.386,33.957,55.696
	c25.003,32.28,57.121,52.639,97.965,57.654c24.191,2.97,47.858,0.15,70.4-9.888c22.139-9.857,41.669-23.699,60.323-38.94
	c10.392-8.491,20.823-16.906,34.052-20.854c3.077-0.918,5.137-0.446,7.583,1.605c8.081,6.773,16.083,6.64,23.909-0.423
	c4.042-3.647,7.632-7.798,11.402-11.743c1.041-1.089,1.614-2.694,3.564-3.055c0.482,1.282,0.957,2.557,1.442,3.827
	c6.884,18.034,23.99,22.169,38.541,9.284c6.14-5.437,10.89-11.97,14.86-19.112c14.521-26.131,22.158-54.41,25.837-83.852
	c0.918-7.35-0.227-14.703-4.301-21.149c-4.442-7.029-12.811-8.134-18.893-2.576c-7.988,7.298-12.263,30.017-3.411,39.373
	c3.056,3.23,3.88,7.207,2.923,11.726c-1.94,9.165-4.503,18.13-7.809,26.884c-3.548,9.396-8.242,18.176-14.704,25.904
	c-2.017,2.413-4.487,4.492-8.089,3.242c-3.721-1.291-4.579-4.22-4.575-7.802c0.01-9.701,0.959-19.277,3.332-28.699
	c3.763-14.939,7.603-29.86,11.198-44.839c1.479-6.165-1.589-10.761-7.652-12.389c-7.85-2.107-14.704,1.402-16.858,9.277
	c-4.432,16.211-8.473,32.517-10.511,49.259c-1.504,12.347-6.135,23.189-16.421,30.894c-6.228,4.665-9.344,3.424-11.05-4.051
	c-0.53-2.324-0.885-4.681-0.437-6.958c3.691-18.767,6.27-37.79,12.771-55.916c3.312-9.236,6.589-18.485,9.835-27.744
	c1.14-3.254,1.301-6.508-1.286-9.198c-8.115-8.439-21.938-5.364-25.315,5.802c-4.507,14.898-8.782,29.869-12.959,44.864
	c-4.998,17.937-8.761,36.035-5.747,54.835c0.294,1.834-0.448,3.414-2.12,4.348C602.18,702.293,598.77,704.106,594.96,706.176z
	 M555.311,492.668c6.138-0.59,11.419-1.584,16.265-4.259c3.137-1.731,5.225-4.308,6.223-7.787
	c3.953-13.776-2.825-20.646-14.672-24.419c-3.398-1.082-5.971,1.399-8.002,3.732c-2.063,2.371,0.935,3.508,1.901,4.972
	C562.866,473.759,562.52,483.748,555.311,492.668z M690.518,677.25c6.664-11.344,10.345-23.598,12.985-36.236
	c0.649-3.107-1.437-4.321-3.446-6.721C696.464,649.078,692.007,662.841,690.518,677.25z M642.837,677.23
	c6.917-13.463,5.597-28.667,9.608-42.717C647.275,648.326,644.822,662.75,642.837,677.23z M898.333,659.578
	c-0.237,0.713-0.523,1.415-0.703,2.142c-2.266,9.158-4.544,18.313-6.743,27.487c-0.357,1.49-1.489,3.558,1.528,3.753
	c2.277,0.147,3.86-0.274,3.764-3.24c-0.131-4.029,0.227-8.06,0.547-12.097C897.201,671.605,898.543,665.702,898.333,659.578z"/>
<path fill="#E1B539" d="M766.931,525.82c0.18-7.9,1.999-15.371,6.135-22.168c5.557-9.131,13.435-14.524,24.396-12.852
	c10.135,1.546,15.741,8.738,18.914,17.968c0.674,1.96,0.858,3.894,3.333,4.513c1.654,0.415,1.342,1.607,0.873,2.972
	c-2.672,7.763-4.407,15.834-7.615,23.422c-4.635,10.96-14.747,16.97-25.992,15.52c-10.407-1.342-17.245-8.943-19.195-21.036
	C767.33,531.383,766.815,528.648,766.931,525.82z M777.291,526.513c0.27,2.043,0.546,4.353,0.885,6.656
	c0.955,6.496,4.202,10.251,9.905,11.502c4.989,1.094,11.262-1.411,13.902-6.495c3.865-7.443,6.673-15.287,4.998-23.987
	c-1.275-6.626-5.934-12.177-11.126-13.118c-5.336-0.968-10.782,2.533-14.406,9.057C778.655,515.157,777.738,520.614,777.291,526.513
	z"/>
<path fill="#AA1D29" d="M147.967,382.186c-18.333-4.706-39.638-29.099-34.987-51.214c1.917-9.117,3.022-18.071,9.498-25.302
	c3.271-3.653,7.325-6.23,11.393-8.856c17.897-11.55,37.444-17.443,58.653-14.834c31.838,3.915,65.802,23.406,77.721,55.946
	c3.899,10.646,3.454,21.391,1.807,32.256c-1.01,6.663-0.257,7.453,6.437,5.684c2.694-0.712,5.336-1.708,7.891-2.827
	c4.644-2.033,6.832-5.179,7.096-10.782c0.712-15.115,4.264-29.832,7.797-44.526c3.709-15.436,7.318-30.893,11.632-46.173
	c0.801-2.839,1.659-5.707,2.916-8.36c1.519-3.205,4.226-5.127,7.934-4.552c5.475,0.85,10.492,2.96,14.85,6.436
	c2.692,2.146,3.62,4.813,2.558,8.295c-4.683,15.334-9.272,30.699-13.841,46.068c-3.945,13.271-8.351,26.417-10.297,40.214
	c-0.744,5.277,0.438,10.871,3.298,11.856c4.873,1.678,7.653-1.905,10.18-4.949c7.762-9.346,12.7-20.299,17.117-31.495
	c8.316-21.081,12.618-43.311,18.551-65.074c1.211-4.44,2.234-9.29,7.683-10.043c5.527-0.763,10.913,0.474,15.195,4.395
	c3.411,3.121,3.281,7,2.057,11.209c-4.783,16.44-9.338,32.947-14.1,49.393c-3.697,12.768-5.621,25.836-6.892,39.017
	c-1.012,10.489,2.911,14.205,13.282,12.387c3.333-0.584,6.567-1.915,9.74-3.171c3.298-1.306,3.09-4.366,2.986-7.186
	c-0.597-16.08,1.784-31.69,7.466-46.748c5.823-15.433,13.498-29.899,24.628-42.152c7.697-8.472,17.008-14.599,29.071-15.129
	c7.12-0.313,13.204,2.071,18.258,6.93c2.627,2.525,3.77,1.922,4.472-1.339c0.359-1.669,0.807-3.342,1.433-4.927
	c1.426-3.608,3.812-5.641,7.98-4.439c2.835,0.817,5.819,1.269,8.507,2.42c6.716,2.876,8.22,6.31,6.097,13.449
	c-5.548,18.654-11.194,37.279-16.75,55.93c-3.375,11.332-6.77,22.613-7.511,34.584c-0.535,8.645,4.649,13.796,13.076,12.028
	c9.565-2.007,15.502-8.198,18.179-17.037c6.455-21.314,10.776-43.162,15.147-64.982c0.441-2.202-0.34-2.982-2.618-3.207
	c-9.825-0.976-9.723-1.038-8.553-10.87c0.518-4.358,2.598-7.059,6.983-7.336c7.229-0.457,9.826-4.574,11.114-11.314
	c3.272-17.11,7.249-34.086,10.955-51.113c0.705-3.239,1.969-6.248,4.042-8.856c5.236-6.587,16.416-6.295,21.12,0.613
	c2.127,3.124,1.388,6.626,0.58,9.951c-4.525,18.601-9.016,37.211-13.815,55.742c-1.009,3.897,0.066,4.642,3.586,4.424
	c3.419-0.213,6.868-0.174,10.294-0.013c4.837,0.228,6.406,2.283,5.521,6.909c-0.292,1.526-0.58,3.061-1.001,4.554
	c-1.673,5.926-3.13,7.071-9.174,7.183c-3.431,0.064-6.873,0.167-10.296-0.008c-3.187-0.163-4.491,1.504-5.046,4.294
	c-3.971,19.989-8.062,39.955-11.906,59.969c-2.539,13.222,8.247,23.61,21.611,21.253c5.881-1.037,11.302-3.472,17.001-5.019
	c3.044-0.827,2.963-2.286,1.995-4.736c-4.64-11.746-6.79-24.017-6.215-36.585c1.055-23.037,6.709-44.359,24.501-60.723
	c7.133-6.56,15.474-10.171,25.146-8.951c11.69,1.474,18.271,9.482,20.462,22.746c3.093,18.728-2.321,35.775-9.806,52.45
	c-4.756,10.597-11.124,20.205-18.751,28.951c-1.588,1.821-2.067,3.091-0.246,5.116c8.502,9.446,21.505,8.68,31.289,2.996
	c2.719-1.579,2.238-4.594,2.152-7.226c-0.605-18.624,2.195-36.676,9.479-53.876c7.096-16.754,16.833-31.605,31.674-42.686
	c11.237-8.39,19.666-8.958,31.29-1.302c3.172,2.09,4.608,2.167,6.63-1.506c4.227-7.678,15.412-8.267,21.015-1.449
	c2.034,2.474,2.212,5.326,1.56,8.406c-7.192,33.942-14.33,67.895-21.496,101.842c-1.116,5.286-0.924,5.49,4.222,4.517
	c8.24-1.559,16.6-2.413,24.504-5.646c6.168-2.523,9.223-6.614,9.938-13.279c3.313-30.894,10.831-60.937,18.935-90.844
	c0.607-2.239,1.491-4.441,2.549-6.504c0.688-1.342,1.694-2.831,2.958-3.515c6.821-3.689,12.224,0.706,17.782,3.571
	c4.403,2.269,5.484,6.187,4.201,10.758c-4.122,14.687-8.35,29.345-12.471,44.033c-3.616,12.889-7.104,25.814-10.738,38.698
	c-0.785,2.782-0.991,5.571-0.43,8.318c0.489,2.395,1.061,5.06,4.021,5.792c2.862,0.708,5.108-0.463,7.056-2.537
	c7.482-7.967,12.515-17.412,16.786-27.359c8.712-20.286,13.732-41.653,18.642-63.056c0.978-4.265,2.312-8.412,4.026-12.425
	c2.303-5.392,6.419-7.338,12.134-5.814c1.651,0.441,3.294,0.981,4.863,1.655c6.515,2.799,8.369,6.453,6.479,13.436
	c-6.143,22.687-12.358,45.354-18.613,68.011c-1.963,7.112-2.572,14.417-2.989,21.701c-0.536,9.351,5.187,13.998,14.246,11.779
	c5.433-1.331,10.707-3.302,16.111-4.764c2.931-0.792,2.899-1.983,1.962-4.634c-10.323-29.231-8.872-57.628,7.466-84.388
	c6.702-10.977,15.562-19.875,29.327-21.999c10.001-1.543,18.745,2.606,23.295,11.661c6.304,12.543,5.823,25.618,2.656,38.78
	c-4.629,19.236-13.008,36.636-25.898,51.775c-4.236,4.976-3.939,6.435,1.501,10.247c3.975,2.786,8.524,3.953,13.214,4.061
	c3.573,0.083,4.165,1.154,3.184,4.419c-1.16,3.86-1.93,7.862-2.552,11.853c-0.554,3.558-2.591,4.556-5.851,4.467
	c-11.264-0.305-21.586-3.292-30.028-11.022c-2.445-2.239-4.188-2.212-6.899-0.701c-11.954,6.664-24.441,11.763-38.459,11.648
	c-3.908-0.032-7.778-0.605-11.476-1.883c-6.763-2.339-10.481-7.69-10.822-14.807c-0.396-8.257,1.072-16.43,0.3-25.041
	c-2.253,3.941-4.486,7.895-6.766,11.822c-4.614,7.949-8.983,16.034-15.616,22.634c-10.685,10.632-24.776,9.578-31.97-1.939
	c-0.912-1.46-1.666-2.148-3.208-0.838c-9.633,8.183-21.585,9.989-33.424,11.944c-8.508,1.405-10.04,2.838-11.375,11.427
	c-2.437,15.68-4.927,31.351-7.508,47.008c-1.538,9.329-9.773,14.756-18.974,12.705c-5.764-1.284-8.558-5.1-7.378-10.95
	c3.841-19.062,7.978-38.065,11.794-57.132c2.134-10.659,5.342-21.112,6.269-32.007c0.222-0.34,0.454-0.673,0.65-1.028
	c0.017-0.031-0.208-0.196-0.32-0.298c-0.126,0.428-0.253,0.855-0.379,1.283c-3.096,2.515-4.542,6.233-6.744,9.389
	c-2.87,4.114-5.921,8.025-9.622,11.421c-8.389,7.699-19.231,9.078-28.802,2.987c-4.517-2.875-8.261-3.297-13.317-1.11
	c-18.117,7.837-35.293,6.037-50.789-6.701c-2.502-2.056-4.312-1.875-6.988-0.314c-11.871,6.928-24.529,11.608-38.489,11.452
	c-12.149-0.137-23.134-3.365-30.936-13.536c-1.562-2.036-2.768-1.155-4.304-0.153c-5.871,3.834-11.565,7.967-17.909,11.026
	c-10.818,5.216-21.305,3.278-31.335-2.063c-4.932-2.626-6.599-7.6-6.987-13.017c-0.47-6.565,0.938-13.033,1.059-20.223
	c-2.111,1.781-2.635,3.898-3.627,5.662c-5.597,9.95-11.444,19.732-20.503,27.012c-9.851,7.917-20.37,7.962-30.295,0.039
	c-2.187-1.745-3.662-1.872-6.105-0.63c-10.44,5.309-21.452,7.073-33.102,5.036c-10.808-1.89-16.166-9.362-14.746-21.072
	c0.449-3.707,0.748-7.432,1.157-11.144c0.408-3.699,0.869-7.393,0.5-11.466c-3.472,6.124-6.907,12.27-10.428,18.366
	c-3.82,6.613-7.75,13.077-13.186,18.642c-9.135,9.352-24.441,11.33-31.967-1.377c-0.876-1.479-2.024-1.973-3.449-0.853
	c-8.346,6.564-18.495,7.834-28.436,9.637c-3.376,0.612-6.125,1.997-8.477,4.485c-14.427,15.256-32.668,21.717-53.169,22.793
	c-7.18,0.377-7.17,0.264-7.19,7.612c-0.044,15.915,0.368,31.85-0.299,47.74c-0.619,14.76-4.309,28.652-15.921,39.181
	c-8.241,7.472-18.553,9.926-28.926,12.17c-14.32,3.099-28.085,0.007-41.9-3.701c-14.69-3.942-28.199-10.048-39.774-19.921
	c-8.551-7.295-14.587-16.412-15.52-27.896c-1.255-15.447,9.604-29.878,24.753-33.725c19.469-4.944,38.633,1.814,49.097,17.403
	c5.97,8.894,4.824,18.269,0.563,27.166c-3.929,8.202-11.524,11.478-20.376,11.75c-5.907,0.182-11.828,0.283-18.076-0.852
	c1.014,3.809,3.855,5.776,6.359,7.848c13.347,11.05,49.431,16.546,68.603,2.577c10.439-7.605,15.851-17.239,16.554-30.284
	c0.902-16.727,0.437-33.272-1.885-49.864c-0.675-4.822-3.078-6.272-6.997-7.18c-13.181-3.055-26.589-5.271-39.276-10.202
	c-33.645-13.078-61.334-33.243-77.625-66.48c-20.205-41.225-9.985-84.136,26.103-112.458c17.637-13.841,36.842-24.276,58.508-30.36
	c12.026-3.377,22.742-10.154,34.372-14.66c2.756-1.068,3.743-3.377,3.269-6.466c-2.878-18.763-1.353-37.07,4.031-55.394
	c6.548-22.285,16.374-42.43,33.3-58.614c9.381-8.97,20.201-15.612,33.088-18.401c8.951-1.938,15.775,0.813,21.088,8.354
	c9.614,13.646,14.642,28.764,14.814,45.484c0.548,53.243-23.921,92.173-68.514,119.491c-5.852,3.586-12.452,5.667-18.972,7.83
	c-25.447,8.44-50.579,17.737-74.841,29.187c-13.465,6.355-25.364,14.943-36.301,25.246c-19.017,17.915-23.518,56.794-3.831,80.23
	c22.606,26.912,50.857,40.675,84.754,45.119c4.636,0.608,10.508,2.757,13.573,0.153c3.149-2.677,1.006-8.805,1.026-13.403
	c0.113-25.902-0.051-51.805,0.157-77.706c0.035-4.355-1.382-5.928-5.541-5.787c-10.916,0.371-21.364,2.324-30.602,8.604
	c-12.438,8.455-16.342,22.992-9.901,36.676c2.616,5.557,6.439,10.293,10.141,15.114c1.226,1.598,2.728,3.01,3.299,5.035
	C148.238,381.864,148.104,382.026,147.967,382.186z M191.538,185.065c33.028-11.439,42.89-16.869,66.391-42.672
	c6.781-7.445,11.171-16.221,11.523-26.43c0.348-10.093-2.325-17.663-14.525-18.74c-4.046-0.358-8.066-0.451-12.107-0.539
	c-2.371-0.051-4.649,0.17-6.735,1.463C206.286,116.608,187.166,147.168,191.538,185.065z M192.282,329.29
	c0.393,16.184,1.718,32.332,1.748,48.536c0.021,10.742,0.439,21.484,0.712,32.227c0.115,4.516,1.3,5.561,5.795,4.529
	c4.384-1.006,8.797-2.104,12.987-3.707c23.941-9.16,35.045-34.859,24.744-58.225c-7.467-16.94-21.624-26.458-38.676-32.141
	c-7.278-2.426-7.31-2.329-7.311,5.51C192.282,327.107,192.282,328.198,192.282,329.29z M462.832,285.873
	c-5.071,0.912-9.661,3.782-13.483,7.79c-14.729,15.449-23.574,33.836-26.939,54.874c-0.957,5.98-2.159,12.007-0.256,18.017
	c2.069,6.531,6.19,7.841,11.613,3.712c4.751-3.618,8.718-7.978,11.879-13.062c11.607-18.675,18.86-39.213,25.679-59.938
	C473.55,290.5,470.456,286.06,462.832,285.873z M671.363,358.626c-0.266,2.716,0.442,5.292,0.979,7.878
	c1.363,6.558,5.921,8.4,11.349,4.448c3.413-2.485,6.288-5.564,8.697-9.07c8.634-12.566,14.704-26.356,19.283-40.816
	c2.628-8.3,5.061-16.672,7.236-25.101c1.677-6.499-1.691-10.612-7.464-9.255c-5.351,1.257-10.485,3.492-14.182,7.7
	C681.136,312.769,673.436,334.589,671.363,358.626z M893.237,330.078c-0.198,6.51,0.07,13.037,2.807,19.183
	c0.651,1.462,1.452,3.908,3.363,1.377c8.385-11.104,15.976-22.65,19.32-36.466c1.8-7.439,3.827-14.817,1.819-22.54
	c-1.565-6.021-6.932-7.951-11.836-4.101c-3.198,2.512-5.902,5.526-7.847,9.182C895.32,307.131,892.736,318.214,893.237,330.078z
	 M598.313,331.227c-0.073,5.362-0.027,11.526,2.514,17.465c1.154,2.698,1.897,2.597,3.737,0.769
	c3.896-3.873,7.251-8.152,9.847-12.969c6.754-12.532,12.828-25.3,12.062-40.098c-0.2-3.876-1.078-7.793-4.912-9.401
	c-3.721-1.561-7.34,0.27-10.436,2.496c-1.211,0.871-2.097,2.286-2.924,3.587C600.974,304.452,597.915,316.953,598.313,331.227z"/>
<path fill="#FEFEFE" d="M331.898,343.9c-0.266,0.639-0.532,1.279-0.798,1.918c-0.104-0.107-0.276-0.2-0.301-0.322
	c-0.15-0.769-0.091-1.476,0.712-1.894C331.638,343.706,331.766,343.805,331.898,343.9z"/>
<path fill="#AA1D29" d="M148.371,381.701c0.321,0.259,0.642,0.52,0.963,0.779c-0.603,0.583-1.003,0.225-1.367-0.295
	C148.104,382.026,148.238,381.864,148.371,381.701z"/>
<path fill="#FEFEFE" d="M806.429,337.265c-0.232,0.466-0.465,0.932-0.697,1.399c-0.628-0.687-0.339-1.289,0.17-1.872
	C806.076,336.947,806.252,337.105,806.429,337.265z"/>
<path fill="#AA1D29" d="M594.96,706.176c3.81-2.07,7.22-3.883,10.59-5.768c1.67-0.934,2.414-2.514,2.12-4.348
	c-3.015-18.8,0.749-36.898,5.747-54.835c4.177-14.995,8.452-29.966,12.959-44.864c3.378-11.165,17.2-14.241,25.315-5.802
	c2.588,2.692,2.428,5.945,1.286,9.198c-3.246,9.259-6.523,18.508-9.835,27.744c-6.501,18.127-9.08,37.15-12.771,55.916
	c-0.448,2.277-0.094,4.634,0.437,6.958c1.706,7.475,4.823,8.716,11.05,4.051c10.286-7.705,14.918-18.547,16.421-30.894
	c2.038-16.742,6.079-33.048,10.511-49.259c2.153-7.875,9.007-11.384,16.858-9.277c6.063,1.628,9.132,6.224,7.652,12.389
	c-3.595,14.98-7.435,29.9-11.198,44.839c-2.373,9.422-3.322,18.998-3.332,28.699c-0.004,3.583,0.855,6.511,4.575,7.802
	c3.602,1.25,6.071-0.83,8.089-3.242c6.462-7.728,11.156-16.508,14.704-25.904c3.306-8.754,5.869-17.718,7.809-26.884
	c0.957-4.519,0.133-8.496-2.923-11.726c-8.852-9.356-4.577-32.075,3.411-39.373c6.082-5.556,14.451-4.453,18.893,2.576
	c4.073,6.446,5.219,13.799,4.301,21.149c-3.679,29.441-11.316,57.721-25.837,83.852c-3.97,7.142-8.72,13.676-14.86,19.112
	c-14.553,12.884-31.658,8.751-38.542-9.284c-0.485-1.27-0.96-2.546-1.442-3.827c-1.95,0.361-2.523,1.966-3.564,3.055
	c-3.77,3.945-7.361,8.096-11.402,11.743c-7.825,7.064-15.827,7.196-23.909,0.423c-2.446-2.05-4.505-2.523-7.583-1.605
	c-13.23,3.948-23.66,12.364-34.052,20.854c-18.653,15.241-38.184,29.082-60.323,38.94c-22.542,10.037-46.209,12.858-70.4,9.888
	c-40.845-5.014-72.962-25.374-97.965-57.654c-13.408-17.31-25.889-35.15-33.957-55.696c-1.994-5.078-3.542-10.291-4.862-15.592
	c-0.745-2.993-0.552-5.801,0.047-8.756c0.698-3.443,2.717-5.36,6.058-5.345c3.654,0.016,5.615,2.455,6.17,5.888
	c0.296,1.831,0.39,3.767,0.15,5.6c-2.102,16.028,3.173,29.927,11.48,43.312c17.681,28.486,40.587,51.276,70.842,66.124
	c21.193,10.401,43.68,13.643,67.224,12.055c14.412-0.972,27.302-6.618,40.862-10.61c-6.385-2.006-12.84-3.216-19.378-4.014
	c-14.426-1.76-27.209-7.948-39.233-15.514c-28.492-17.931-46.105-43.675-50.949-76.996c-3.763-25.887-0.253-50.994,14.37-73.593
	c1.303-2.015,2.905-5.527,5.154-4.403c2.307,1.153,0.365,4.515-0.462,6.734c-2.251,6.034-3.351,12.161-3.78,18.643
	c-0.384,5.797-2.846,11.425-3.949,17.211c-4.768,25.023-1.015,48.671,12.066,70.645c11.009,18.493,28.416,28.303,48.063,35.013
	c16.18,5.526,32.7,6.495,49.298,2.825c21.616-4.78,43.103-29.585,45.325-51.556c1.631-16.124-7.307-32.179-23.012-39.44
	c-14.414-6.664-29.127-12.731-43.926-18.503c-24.745-9.653-39.242-28.216-42.587-53.647c-4.715-35.841,9.759-69.549,51.608-78.809
	c11.265-2.492,22.605-1.492,33.94-0.081c9.195,1.144,18.274,0.858,27.207-2.312c12.49-4.432,17.659-13.918,18.043-26.242
	c0.344-11.02-5.511-18.847-14.979-24.06c-11.979-6.596-19.848-5.436-27.886,4.008c-4.562,5.36-4.715,9.618-0.238,15.017
	c2.466,2.974,4.211,6.063,4.287,10.07c0.066,3.485-1.569,5.227-4.811,5.729c-3.224,0.499-7.221,0.545-7.994-2.929
	c-2.004-9.008-2.504-18.289,0.867-27.138c2.974-7.806,9.178-12.476,17.012-14.862c10.968-3.339,26.007,2.786,34.084,13.517
	c9.907,13.163,9.92,27.758,6.175,42.81c-4.229,16.995-6.294,34.239-7.251,51.702c-0.35,6.396,0.416,13.224-3.522,19.045
	c-0.58,0.859-0.661,2.321-1.992,2.336c-1.622,0.018-1.74-1.6-2.205-2.663c-3.863-8.848-7.187-17.938-12.228-26.246
	c-5.246-8.644-11.683-16.141-20.163-21.78c-25.834-17.181-58.348-1.414-60.681,29.503c-0.41,5.432-0.596,10.915,0.297,16.341
	c2.309,14.027,11.804,22.002,23.497,28.395c11.677,6.383,24.295,10.529,36.33,16.034c6.234,2.852,12.462,5.759,18.486,9.021
	c20.487,11.095,30.265,28.903,31.685,51.69c0.682,10.94,0.202,21.814-3.296,32.358c-0.242,0.728-0.331,1.519-0.394,2.289
	C594.602,704.394,594.758,704.854,594.96,706.176z"/>
<path fill="#AA1D29" d="M967.115,690.847c-4.812,7.809-9.457,15.716-15.638,22.599c-2.738,3.048-5.71,5.793-9.06,8.053
	c-8.879,5.99-18.568,5.46-27.121-1.828c-2.534-2.16-4.167-1.971-6.853-0.648c-11.898,5.864-24.405,7.403-37.228,3.758
	c-14.255-4.052-20.222-15.594-16.774-31.746c4.13-19.342,9.716-38.303,15.115-57.313c0.594-2.09,1.392-4.142,1.288-6.385
	c-0.098-2.142,0.114-5.084-1.705-5.82c-1.742-0.705-4.21,0.84-5.783,2.411c-3.877,3.875-7.005,8.36-9.914,12.98
	c-14.107,22.401-22.64,47.068-29.338,72.472c-1.97,7.471-6.508,12.707-13.774,15.32c-7.024,2.526-10.265,0.228-10.686-7.234
	c-0.033-0.579-0.15-1.153-0.331-2.499c-8.17,7.228-17.208,10.771-27.681,9.583c-10.832-1.228-19.002-5.971-21.689-17.853
	c-4.312,3.376-6.791,7.786-10.683,10.854c-4.544,3.582-9.504,5.8-15.174,6.728c-2.3,0.376-3.325,0.13-2.603-2.512
	c0.614-2.245,1.097-4.547,1.388-6.856c0.759-6.031,2.002-10.849,9.301-13.024c6.874-2.048,10.048-8.998,12.9-15.311
	c7.164-15.86,11.118-32.669,14.34-49.676c2.17-11.457,3.993-22.993,6.553-34.361c2.375-10.548,9.509-15.414,20.127-14.728
	c5.462,0.353,7.673,2.557,7.16,8.107c-0.732,7.93-3.369,15.489-5.273,23.181c-5.944,24.012-11.733,48.058-16.706,72.295
	c-0.874,4.262-0.09,7.712,3.623,10.215c4.67,3.148,9.72,3.623,13.519,0.594c5.758-4.59,10.728-9.823,13.202-17.138
	c8.997-26.616,15.178-53.888,19.59-81.598c0.438-2.751,1.176-5.498,2.142-8.111c3.452-9.328,10.469-12.47,19.771-8.993
	c3.887,1.453,5.708,3.891,4.525,8.314c-4.061,15.181-7.959,30.405-11.902,45.617c-0.267,1.028-0.386,2.093-0.668,3.666
	c2.182-0.928,2.521-2.655,3.124-4.031c7.234-16.504,18.275-30.445,30.035-43.79c4.411-5.006,10.72-7.494,17.641-7.198
	c6.896,0.295,12.875,6.71,13.131,14.075c0.358,10.275-2.972,19.962-5.237,29.783c-4.368,18.948-8.871,37.871-13.748,56.694
	c-2.95,11.384,2.908,14.621,14.023,14.137c1.674-0.073,3.327-0.768,4.976-1.225c6.138-1.702,7.359-3.197,7.435-9.461
	c0.206-16.935,2.463-33.515,8.41-49.47c6.892-18.489,17.813-34.245,32.599-47.245c10.686-9.394,23.644-10.246,35.813-2.8
	c0.665,0.407,1.387,0.746,1.979,1.24c3.236,2.695,5.099,3.073,7.01-1.855c3.249-8.375,16.158-10.479,22.673-4.207
	c2.759,2.655,2.041,6.024,1.622,9.256c-0.965,7.455-3.616,14.485-5.693,21.648c-7.761,26.757-15.671,53.472-23.519,80.204
	c-0.351,1.195-0.626,2.411-0.984,3.603c-0.779,2.598-0.44,3.775,2.806,3.129c4.567-0.91,9.254-1.198,13.854-1.974
	c2.294-0.387,2.859,0.395,2.439,2.448c-0.966,4.724-1.958,9.444-2.879,14.177c-0.62,3.182-2.725,4.384-5.701,4.345
	c-11.628-0.154-18.292,6.357-21.376,16.736c-4.191,14.107-9.988,27.482-16.556,40.605c-2.803,5.599-6.904,9.523-12.348,12.256
	c-8.185,4.108-16.255,0.565-18.583-8.369c-3.462-13.28,0.365-24.911,8.569-35.407c2.107-2.695,4.225-5.38,7.171-7.301
	c6.491-4.231,11.07-10.113,13.634-17.348c4.104-11.581,7.463-23.397,10.134-35.401c0.493-0.414,0.875-1.201,0.346-1.442
	C967.128,689.433,967.318,690.422,967.115,690.847z M931.595,685.032c0,1.649-0.16,2.768,0.029,3.824
	c0.688,3.847,1.266,8.307,5.102,9.942c3.968,1.691,7.365-1.127,10.299-3.846c3.915-3.628,7.119-7.816,9.938-12.329
	c11.821-18.929,18.653-39.971,25.755-60.889c1.366-4.025-0.391-6.472-4.625-7.467c-7.012-1.649-12.828,0.397-17.756,5.524
	C942.65,638.188,933.855,660.448,931.595,685.032z M835.059,645.852c-0.066-0.131-0.131-0.262-0.197-0.393
	c-0.102,0.08-0.304,0.2-0.291,0.233c0.083,0.201,0.213,0.383,0.329,0.57C834.953,646.125,835.006,645.989,835.059,645.852z"/>
<path fill="#FEFEFE" d="M727.559,691.888c-0.08,0.164-0.159,0.329-0.24,0.492c-0.001-0.077-0.035-0.183,0.004-0.224
	c0.081-0.09,0.199-0.147,0.301-0.218C727.624,691.937,727.559,691.888,727.559,691.888z"/>
<path fill="#AA1D29" d="M777.291,526.513c0.448-5.898,1.364-11.355,4.159-16.386c3.624-6.524,9.069-10.025,14.406-9.057
	c5.192,0.942,9.851,6.494,11.126,13.118c1.675,8.7-1.134,16.544-4.998,23.987c-2.639,5.084-8.912,7.59-13.902,6.495
	c-5.703-1.251-8.95-5.005-9.905-11.502C777.837,530.867,777.561,528.556,777.291,526.513z"/>
<path fill="#E1B539" d="M191.538,185.065c-4.372-37.896,14.748-68.458,44.548-86.919c2.086-1.292,4.364-1.514,6.735-1.463
	c4.04,0.088,8.061,0.182,12.107,0.539c12.201,1.078,14.874,8.646,14.525,18.74c-0.353,10.21-4.742,18.986-11.523,26.43
	C234.428,168.196,224.566,173.627,191.538,185.065z M201.343,170.165c23.217-7.831,40.089-22.473,53.485-41.491
	c3.533-5.017,4.29-10.9,3.828-16.955c-0.112-1.472-0.268-3.169-1.864-3.39c-5.947-0.822-12.419-2.596-17.725,0.673
	c-13.368,8.238-23.893,19.405-30.588,33.799C204.542,151.266,201.871,160.11,201.343,170.165z"/>
<path fill="#E1B539" d="M192.282,329.29c0-1.091,0-2.182,0-3.273c0.001-7.838,0.034-7.935,7.311-5.51
	c17.052,5.684,31.209,15.201,38.676,32.141c10.3,23.366-0.803,49.065-24.744,58.225c-4.191,1.604-8.603,2.7-12.987,3.707
	c-4.495,1.032-5.68-0.012-5.795-4.529c-0.273-10.741-0.692-21.483-0.712-32.227C194,361.622,192.675,345.474,192.282,329.29z
	 M203.163,333.65c0.713,22.972,1.422,45.77,2.132,68.603c8.249-1.658,15.987-6.855,20.801-14.072
	C239.549,368.013,226.944,342.535,203.163,333.65z"/>
<path fill="#E1B539" d="M462.832,285.873c7.626,0.186,10.72,4.627,8.493,11.392c-6.819,20.725-14.071,41.263-25.679,59.938
	c-3.161,5.085-7.127,9.444-11.879,13.062c-5.423,4.13-9.544,2.819-11.613-3.712c-1.903-6.009-0.701-12.037,0.256-18.017
	c3.365-21.037,12.21-39.424,26.939-54.874C453.171,289.656,457.761,286.785,462.832,285.873z M458.594,300.135
	c-16.169,15.509-24.344,34.736-26.222,56.857C445.25,339.982,452.415,320.308,458.594,300.135z"/>
<path fill="#E1B539" d="M671.363,358.626c2.073-24.037,9.773-45.857,25.899-64.215c3.696-4.208,8.831-6.442,14.182-7.7
	c5.773-1.358,9.14,2.755,7.464,9.255c-2.175,8.429-4.608,16.801-7.236,25.101c-4.579,14.462-10.65,28.251-19.283,40.816
	c-2.409,3.506-5.284,6.585-8.697,9.07c-5.427,3.952-9.986,2.11-11.349-4.448C671.805,363.918,671.098,361.341,671.363,358.626z
	 M705.894,301.356c-0.528,0.283-1.2,0.443-1.563,0.867c-13.592,15.945-20.21,34.68-22.037,55.33
	c11.986-16.94,19.377-35.836,23.827-55.984c0.334-0.16,0.875-0.257,0.239-0.715C706.337,300.836,706.055,301.18,705.894,301.356z"/>
<path fill="#E1B539" d="M893.237,330.078c-0.503-11.864,2.081-22.947,7.626-33.364c1.945-3.656,4.649-6.671,7.847-9.182
	c4.904-3.851,10.27-1.92,11.836,4.101c2.008,7.723-0.019,15.1-1.819,22.54c-3.344,13.816-10.935,25.362-19.32,36.466
	c-1.911,2.531-2.712,0.085-3.363-1.377C893.308,343.115,893.039,336.588,893.237,330.078z M904.011,323.238
	c3.126-6.33,5.466-12.891,5.823-20.033C906.116,309.361,904.575,316.156,904.011,323.238z"/>
<path fill="#E1B539" d="M598.313,331.227c-0.398-14.274,2.661-26.775,9.888-38.152c0.826-1.299,1.712-2.715,2.924-3.587
	c3.096-2.226,6.715-4.057,10.436-2.496c3.834,1.608,4.712,5.526,4.912,9.401c0.766,14.799-5.308,27.566-12.062,40.098
	c-2.596,4.817-5.952,9.095-9.847,12.969c-1.84,1.828-2.582,1.93-3.737-0.769C598.286,342.752,598.24,336.589,598.313,331.227z
	 M616.219,300.616c-4.542,7.283-6.664,14.452-6.964,22.688C612.874,316.289,615.207,309.197,616.219,300.616z"/>
<path fill="#E1B539" d="M704.179,370.786c0.126-0.428,0.253-0.855,0.379-1.283c0.112,0.102,0.337,0.267,0.32,0.298
	c-0.196,0.354-0.428,0.688-0.65,1.028C704.228,370.83,704.179,370.786,704.179,370.786z"/>
<path fill="#E1B539" d="M931.595,685.032c2.259-24.584,11.055-46.843,28.741-65.242c4.927-5.127,10.743-7.172,17.756-5.524
	c4.233,0.995,5.991,3.443,4.625,7.467c-7.1,20.918-13.934,41.961-25.755,60.889c-2.819,4.513-6.023,8.702-9.938,12.329
	c-2.934,2.719-6.332,5.537-10.299,3.846c-3.836-1.635-4.413-6.095-5.102-9.942C931.435,687.799,931.595,686.68,931.595,685.032z
	 M942.747,683.876c13.56-17.261,20.303-37.588,27.008-57.934C953.118,641.681,944.729,661.315,942.747,683.876z"/>
<path fill="#E1B539" d="M967.115,690.847c0.203-0.426,0.013-1.414,0.765-1.072c0.528,0.241,0.147,1.028-0.346,1.442
	C967.395,691.096,967.254,690.972,967.115,690.847z"/>
<path fill="#E1B539" d="M835.059,645.852c-0.053,0.137-0.106,0.273-0.159,0.41c-0.115-0.188-0.246-0.369-0.329-0.57
	c-0.013-0.032,0.189-0.153,0.291-0.233C834.928,645.59,834.994,645.721,835.059,645.852z"/>
<path fill="#FEFEFE" d="M705.894,301.356c0.161-0.176,0.444-0.52,0.467-0.503c0.637,0.459,0.095,0.555-0.239,0.715
	C706.121,301.568,705.894,301.356,705.894,301.356z"/>
</svg>
